<?xml version="1.0" standalone="no"?>
<!DOCTYPE svg PUBLIC "-//W3C//DTD SVG 20010904//EN"
 "http://www.w3.org/TR/2001/REC-SVG-20010904/DTD/svg10.dtd">
<svg version="1.0" xmlns="http://www.w3.org/2000/svg"
 width="700.000000pt" height="700.000000pt" viewBox="0 0 700.000000 700.000000"
 preserveAspectRatio="xMidYMid meet">
<metadata>
Created by potrace 1.14, written by Peter Selinger 2001-2017
</metadata>
<g transform="translate(0.000000,700.000000) scale(0.100000,-0.100000)"
fill="#000000" stroke="none">
<path d="M5568 6713 c6 -2 18 -2 25 0 6 3 1 5 -13 5 -14 0 -19 -2 -12 -5z"/>
<path d="M5715 6686 c443 -115 794 -442 940 -878 60 -181 65 -237 65 -766 l0
-473 -27 3 -28 3 -6 445 c-5 362 -9 458 -22 515 -126 538 -505 914 -1038 1031
-80 18 -173 19 -2099 19 -1911 0 -2019 -1 -2098 -18 -279 -62 -493 -178 -685
-374 -177 -180 -294 -395 -353 -653 -14 -62 -18 -143 -21 -472 l-5 -398 -28 0
-29 0 -4 93 c-1 50 -4 -655 -5 -1568 -2 -1654 1 -1821 33 -1958 79 -341 284
-638 576 -833 158 -106 326 -173 524 -210 96 -18 188 -19 2145 -19 1904 0
2051 1 2137 17 513 97 910 441 1068 922 70 214 66 73 62 2361 -3 1851 -5 2067
-19 2130 -34 146 -51 195 -68 195 -11 0 -27 26 -50 83 -145 355 -442 638 -803
766 -91 32 -205 61 -235 61 -9 -1 24 -11 73 -24z m-4149 -1070 c71 -42 77 -43
95 -16 12 17 34 20 199 31 102 6 264 12 360 13 l175 1 140 -74 c488 -258 804
-469 910 -607 19 -26 38 -58 41 -71 9 -33 18 -29 33 15 8 22 44 67 90 112 148
147 429 327 865 554 123 65 132 68 215 73 47 3 210 -2 361 -11 251 -15 276
-19 289 -36 7 -11 18 -20 23 -20 6 0 48 23 95 50 47 28 90 50 95 50 7 0 8
-477 3 -1522 -4 -838 -8 -1523 -9 -1524 0 -1 -337 -267 -748 -592 -411 -326
-750 -592 -753 -592 -3 0 -5 745 -5 1655 0 910 -2 1655 -4 1655 -3 0 -17 -5
-32 -10 -18 -7 -30 -7 -39 0 -21 17 -25 -310 -25 -1892 l0 -1496 -47 -10
c-225 -48 -561 -48 -785 -1 l-47 10 -3 1679 -3 1678 -45 40 -45 40 -3 -1675
c-1 -921 -6 -1673 -10 -1671 -5 2 -344 269 -753 593 l-746 590 -6 734 c-4 404
-7 1092 -7 1528 l0 795 33 -20 c17 -10 60 -35 93 -56z"/>
</g>
</svg>
