<?xml version="1.0" standalone="no"?>
<!DOCTYPE svg PUBLIC "-//W3C//DTD SVG 1.1//EN" "http://www.w3.org/Graphics/SVG/1.1/DTD/svg11.dtd" >
<svg>
<metadata>
Created by FontForge 20090914 at Tue Jun 14 15:48:11 2022
 By www-data
Copyright (C) 1993; Type Market Ltd. Moscow, 119136, Box 20; phone:(095)2071022; Created by A.Kustov
</metadata>
<defs>
<font id="HeliosBold" horiz-adv-x="562" >
  <font-face 
    font-family="Helios"
    font-weight="700"
    font-stretch="normal"
    units-per-em="1000"
    panose-1="0 0 0 0 0 0 0 0 0 0"
    ascent="800"
    descent="-200"
    x-height="538"
    cap-height="726"
    bbox="-34 -224.998 1287 937"
    underline-thickness="50"
    underline-position="-75"
    unicode-range="U+0020-U+2122"
  />
<missing-glyph horiz-adv-x="500" 
d="M63 0v937h375v-937h-375zM125 63h250v812h-250v-812z" />
    <glyph glyph-name=".notdef" horiz-adv-x="500" 
d="M63 0v937h375v-937h-375zM125 63h250v812h-250v-812z" />
    <glyph glyph-name="space" unicode=" " horiz-adv-x="281" 
 />
    <glyph glyph-name="exclam" unicode="!" horiz-adv-x="337" 
d="M243 143v-143h-148v143h148zM95 726h148v-185l-36 -342h-75l-37 342v185z" />
    <glyph glyph-name="quotedbl" unicode="&#x22;" horiz-adv-x="478" 
d="M280 452v274h99v-274h-99zM99 452v274h99v-274h-99z" />
    <glyph glyph-name="numbersign" unicode="#" 
d="M514 292l-12 -91h-98l-28 -201h-95l28 201h-98l-28 -201h-95l28 201h-98l13 91h98l17 121h-98l12 91h98l28 200h95l-28 -200h99l27 200h95l-27 -200h96l-12 -91h-97l-18 -121h98zM339 413h-98l-17 -121h97z" />
    <glyph glyph-name="dollar" unicode="$" 
d="M517 506l-130 0.000976562c0 34 -5.33301 59 -16 75c-12.667 19.333 -35 29 -67 29v-189c84 -26 140.333 -52.667 169 -80c36.667 -35.333 55 -82.333 55 -141c0 -65.333 -20.833 -117.833 -62.5 -157.5s-95.5 -59.5 -161.5 -59.5v-99h-46v99
c-78.667 0 -136.167 19.167 -172.5 57.5s-54.5 97.166 -54.5 176.499h132c3.33301 -40.667 10 -69 20 -85c13.333 -21.333 38.333 -35.333 75 -42v212c-66 17.333 -113.667 37 -143 59c-46 34.667 -69 83.334 -69 146.001c0 64 19.167 115 57.5 153s89.833 57 154.5 57v65
h46v-65c58 -6 103 -19.667 135 -41c52 -34.667 78 -91.334 78 -170.001zM258 435.001v175c-24 0 -44.167 -7.33301 -60.5 -22s-24.5 -33.667 -24.5 -57c0 -52 28.333 -84 85 -96zM304 285.001v-195.001c28 0 49.833 9.33301 65.5 28s23.5 42.334 23.5 71.001
c0 46.667 -29.667 78.667 -89 96z" />
    <glyph glyph-name="percent" unicode="%" horiz-adv-x="897" 
d="M502 171c0 51.333 17.833 94.833 53.5 130.5s79.167 53.5 130.5 53.5c50.667 0 93.834 -18 129.501 -54s53.5 -79.333 53.5 -130s-17.833 -94 -53.5 -130s-78.834 -54 -129.501 -54c-51.333 0 -94.833 17.833 -130.5 53.5s-53.5 79.167 -53.5 130.5zM606 171
c0 -22.667 7.66699 -41.667 23 -57s34.333 -23 57 -23s41.5 7.66699 56.5 23s22.5 34.333 22.5 57c0 22 -7.66699 40.833 -23 56.5s-34 23.5 -56 23.5s-40.833 -7.83301 -56.5 -23.5s-23.5 -34.5 -23.5 -56.5zM28 533c0 51.333 17.833 94.833 53.5 130.5
s79.167 53.5 130.5 53.5c50.667 0 93.834 -18 129.501 -54s53.5 -79.333 53.5 -130s-17.833 -94 -53.5 -130s-78.834 -54 -129.501 -54c-51.333 0 -94.833 17.833 -130.5 53.5s-53.5 79.167 -53.5 130.5zM132 533c0 -22.667 7.66699 -41.667 23 -57s34.333 -23 57 -23
s41.5 7.66699 56.5 23s22.5 34.333 22.5 57c0 22 -7.66699 40.833 -23 56.5s-34 23.5 -56 23.5s-40.833 -7.83301 -56.5 -23.5s-23.5 -34.5 -23.5 -56.5zM684 717l-402 -737h-74l402 737h74z" />
    <glyph glyph-name="ampersand" unicode="&#x26;" horiz-adv-x="729" 
d="M392 558c0 40 -20 60 -60 60c-17.333 0 -31.5 -5.5 -42.5 -16.5s-16.5 -25.167 -16.5 -42.5c0 -22 17.333 -52.333 52 -91c44.667 27.333 67 57.333 67 90zM577 158l131.002 -157.999h-170l-50 61c-54 -54 -123 -81 -207 -81c-62.667 0 -115.334 18.333 -158.001 55
c-45.333 39.333 -68 89.666 -68 150.999c0 50.667 14.667 94.334 44 131.001c22 28.667 58.667 58.667 110 90c-43.333 48 -65 98.333 -65 151c0 53.333 19.333 95 58 125c35.333 28 80.333 42 135 42c50 0 92 -15.5 126 -46.5s51 -71.5 51 -121.5
c0 -68 -40 -125.667 -120 -173l103 -127c20 30 32.667 69.667 38 119h125c-4.66699 -46.667 -12.834 -85.334 -24.501 -116.001s-31.167 -64.667 -58.5 -102zM415.002 150.001l-133 167c-26 -18.667 -43.667 -32.667 -53 -42c-22 -21.333 -33 -48 -33 -80
c0 -20.667 7 -40 21 -58c20 -25.333 48.667 -38 86 -38c38 0 75.333 17 112 51z" />
    <glyph glyph-name="quotesingle" unicode="'" horiz-adv-x="240" 
d="M71 452v274h99v-274h-99z" />
    <glyph glyph-name="parenleft" unicode="(" horiz-adv-x="337" 
d="M317 -210h-104c-118 158 -177 316 -177 474c0 160 59 319.333 177 478h104c-44.667 -76 -77 -146 -97 -210c-26 -82 -39 -171.333 -39 -268c0 -118.667 22.667 -232 68 -340c16 -38 38.667 -82.667 68 -134z" />
    <glyph glyph-name="parenright" unicode=")" horiz-adv-x="337" 
d="M20 742h104c118 -158 177 -316 177 -474c0 -160 -59 -319.333 -177 -478h-104c44.667 76 77 146 97 210c26 82 39 171.333 39 268c0 118.667 -22.667 232 -68 340c-16 38 -38.667 82.667 -68 134z" />
    <glyph glyph-name="asterisk" unicode="*" horiz-adv-x="393" 
d="M341 640l25 -74l-106 -32l69 -98l-63 -45l-69 92l-70 -92l-63 45l68 98l-105 32l24 74l103 -35v121h86v-120z" />
    <glyph glyph-name="plus" unicode="+" horiz-adv-x="590" 
d="M238 312v200h113v-200h199v-113h-199v-199h-113v199h-198v113h198z" />
    <glyph glyph-name="comma" unicode="," horiz-adv-x="280" 
d="M64 0v147h151v-127c0 -54 -12 -95.833 -36 -125.5s-62 -51.167 -114 -64.5l-1 54c30.667 10 52.5 23.667 65.5 41s19.5 42.333 19.5 75h-85z" />
    <glyph glyph-name="hyphen" unicode="-" horiz-adv-x="590" 
d="M40 312h509v-113h-509v113z" />
    <glyph glyph-name="hyphen" unicode="&#x2010;" horiz-adv-x="590" 
d="M40 312h509v-113h-509v113z" />
    <glyph glyph-name="period" unicode="." horiz-adv-x="280" 
d="M215 147v-147h-151v147h151z" />
    <glyph glyph-name="slash" unicode="/" horiz-adv-x="280" 
d="M314 745l-230 -764h-118l230 764h118z" />
    <glyph glyph-name="zero" unicode="0" 
d="M33 349c0 108.667 14.666 192 43.999 250c40 78.667 108.667 118 206 118c96.667 0 164.334 -39.667 203.001 -119c28.667 -57.333 43 -140.333 43 -249c0 -108 -14.667 -191.333 -44 -250c-39.333 -79.333 -107.333 -119 -204 -119s-164.667 39.667 -204 119
c-29.333 58.667 -44 142 -44 250zM177.999 349c0 -76.667 3 -128.667 9 -156c14 -66.667 45.333 -100 94 -100s80 33.333 94 100c6 27.333 9 79.333 9 156c0 76 -3 128 -9 156c-14 66 -45.333 99 -94 99s-80 -33 -94 -99c-6 -27.333 -9 -79.333 -9 -156z" />
    <glyph glyph-name="one" unicode="1" horiz-adv-x="561" 
d="M69 494v99h21c47.333 0 86.333 8.66699 117 26c38.667 22 58 54.667 58 98h116v-717h-141v494h-171z" />
    <glyph glyph-name="two" unicode="2" 
d="M172 464h-137.001c0 78 19.333 139 58 183c40.667 46.667 99.334 70 176.001 70c72 0 130.333 -19.333 175 -58c47.333 -41.333 71 -97.333 71 -168c0 -51.333 -13.667 -96.666 -41 -135.999c-23.333 -32.667 -59.333 -65 -108 -97
c-94.667 -61.333 -148.667 -105.666 -162 -132.999h311v-125h-488c0 53.333 8 97 24 131c24 51.333 71.333 102.666 142 153.999c57.333 41.333 95.333 70.333 114 87c44.667 39.333 67 80.666 67 123.999c0 30 -9 54.5 -27 73.5s-42 28.5 -72 28.5
c-68.667 0 -103 -44.667 -103 -134z" />
    <glyph glyph-name="three" unicode="3" 
d="M215 314l0.00195312 101.001h23c80 0 120 32.333 120 97c0 27.333 -8 49.5 -24 66.5s-38 25.5 -66 25.5c-64.667 0 -97 -39.333 -97 -118h-131c0 74.667 20.667 131.834 62 171.501s99.666 59.5 174.999 59.5c64.667 0 117 -17 157 -51c43.333 -36 65 -85.667 65 -149
c0 -64.667 -28.667 -110.334 -86 -137.001c72 -25.333 108 -81.333 108 -168c0 -69.333 -23.167 -125.166 -69.5 -167.499s-104.5 -63.5 -174.5 -63.5c-78.667 0 -139.334 19.333 -182.001 58c-44.667 41.333 -67 101.666 -67 180.999h138c-2 -84 32.667 -126 104 -126
c33.333 0 59.333 11.167 78 33.5s28 50.5 28 84.5c0 43.333 -18.333 72.666 -55 87.999c-22.667 9.33301 -58 14 -106 14z" />
    <glyph glyph-name="four" unicode="4" 
d="M134 272h176c0 87.333 0.333008 152 1 194l2 111zM291 717h160v-445h80v-113h-80v-159h-141v159h-282v122z" />
    <glyph glyph-name="five" unicode="5" 
d="M201 585l-24.998 -155.001c37.333 26 80 39 128 39c65.333 0 118.333 -22.333 159 -67c38.667 -42.667 58 -97.334 58 -164.001c0 -64.667 -16.667 -119.667 -50 -165c-45.333 -61.333 -115.333 -92 -210 -92c-66 0 -120.667 18.333 -164 55
c-46 39.333 -69 91.333 -69 156h141c7.33301 -65.333 40.333 -98 99 -98c35.333 0 62.666 14 81.999 42c17.333 24.667 26 55.334 26 92.001s-8.33301 66.334 -25 89.001c-18 26 -44.667 39 -80 39c-44.667 0 -76.334 -17 -95.001 -51l-126 6l49 393h394v-119h-292z" />
    <glyph glyph-name="six" unicode="6" 
d="M511 535h-140.002c-4.66699 46 -32.334 69 -83.001 69c-44 0 -76 -23.667 -96 -71c-14.667 -34 -22 -76.333 -22 -127l2 -2c28.667 39.333 73.334 59 134.001 59c64.667 0 117.334 -20.667 158.001 -62s61 -94.333 61 -159c0 -74.667 -20 -136 -60 -184
c-43.333 -51.333 -101.333 -77 -174 -77c-172.667 0 -259 120 -259 360c0 64.667 4.33301 117.334 13 158.001c30.667 145.333 115 218 253 218c56.667 0 105.334 -16 146.001 -48c44.667 -34.667 67 -79.334 67 -134.001zM383.998 230c0 34 -9.00098 62.501 -27.001 85.501
s-43.333 34.5 -76 34.5c-35.333 0 -62.166 -11.333 -80.499 -34s-27.5 -52.334 -27.5 -89.001c0 -37.333 9 -68.333 27 -93c20.667 -26.667 49 -40 85 -40c34.667 0 60.667 14.667 78 44c14 24 21 54.667 21 92z" />
    <glyph glyph-name="seven" unicode="7" 
d="M25 704l509.001 0.000976562v-109c-96.667 -103.333 -166.334 -210 -209.001 -320c-35.333 -90.667 -53 -182.334 -53 -275.001h-146c0 103.333 24.333 207.333 73 312c44.667 96 105.667 185 183 267h-357v125z" />
    <glyph glyph-name="eight" unicode="8" 
d="M282 426c27.333 0 48.833 8 64.5 24s23.5 37.667 23.5 65c0 25.333 -7.5 46.5 -22.5 63.5s-35.167 25.5 -60.5 25.5c-28.667 0 -52 -7.66699 -70 -23s-27 -37.333 -27 -66c0 -26.667 8.66699 -48.167 26 -64.5s39.333 -24.5 66 -24.5zM529 213
c0 -57.333 -17.334 -107.331 -52.001 -149.998c-44.667 -54.667 -110 -82 -196 -82c-71.333 0 -129.666 18.333 -174.999 55c-48.667 39.333 -73 93.666 -73 162.999c0 86.667 36.333 147 109 181c-58 29.333 -87 76.333 -87 141c0 62 22.333 110.667 67 146
c40.667 33.333 92.667 50 156 50c62.667 0 115 -15.333 157 -46c46.667 -34 70 -81 70 -141c0 -67.333 -27.667 -115.666 -83 -144.999c38 -18.667 65.333 -41.334 82 -68.001s25 -61.334 25 -104.001zM383.999 207.002c0 34 -9 61.1689 -27 81.502s-44 30.5 -78 30.5
c-32 0 -56.833 -10.333 -74.5 -31s-26.5 -47.334 -26.5 -80.001c0 -34.667 8.83301 -62.334 26.5 -83.001s43.5 -31 77.5 -31c32 0 57 10.667 75 32s27 48.333 27 81z" />
    <glyph glyph-name="nine" unicode="9" 
d="M172 479c0 -87.333 35.333 -131 106 -131c32.667 0 58.667 12 78 36c17.333 22.667 26 50.667 26 84c0 88.667 -36 133 -108 133c-34 0 -59.5 -11.5 -76.5 -34.5s-25.5 -52.167 -25.5 -87.5zM45 165l139.999 0.000976562c8 -47.333 35.667 -71 83 -71
c78.667 0 118 66.333 118 199l-2 2c-26.667 -40 -72 -60 -136 -60c-64.667 0 -117 21 -157 63s-60 95.667 -60 161c0 79.333 20.833 142.166 62.5 188.499s101.834 69.5 180.501 69.5c134 0 214.667 -76 242 -228c7.33301 -40.667 11 -87.667 11 -141
c0 -102 -17.667 -184.667 -53 -248c-44.667 -79.333 -113.667 -119 -207 -119c-60 0 -110 15.667 -150 47c-42 33.333 -66 79 -72 137z" />
    <glyph glyph-name="colon" unicode=":" horiz-adv-x="337" 
d="M244 147v-147h-151v147h151zM244 517v-147h-151v147h151z" />
    <glyph glyph-name="semicolon" unicode=";" horiz-adv-x="337" 
d="M93 0v147h151v-127c0 -54 -12 -95.833 -36 -125.5s-62 -51.167 -114 -64.5l-1 54c30.667 10 52.5 23.667 65.5 41s19.5 42.333 19.5 75h-85zM244 517v-147h-151v147h151z" />
    <glyph glyph-name="less" unicode="&#x3c;" horiz-adv-x="590" 
d="M552 101v-109l-513 220v89l513 219v-109l-367 -155z" />
    <glyph glyph-name="equal" unicode="=" horiz-adv-x="590" 
d="M549 424v-113h-509v113h509zM549 199v-113h-509v113h509z" />
    <glyph glyph-name="greater" unicode="&#x3e;" horiz-adv-x="590" 
d="M38 101l367 155l-367 155v109l513 -219v-89l-513 -220v109z" />
    <glyph glyph-name="question" unicode="?" horiz-adv-x="617" 
d="M387 210l-146.999 0.000976562c0 52.667 7 92.5 21 119.5s42.333 55.333 85 85s64 63.167 64 100.5c0 30.667 -8.66699 55 -26 73s-41.333 27 -72 27c-64.667 0 -101 -38.667 -109 -116l-142 -1c0 73.333 22 131 66 173s102.667 63 176 63c74.667 0 135 -16.667 181 -50
c51.333 -37.333 77 -92 77 -164c0 -41.333 -11.667 -77.666 -35 -108.999c-17.333 -22.667 -46.333 -48.334 -87 -77.001c-22.667 -16 -37.334 -33.667 -44.001 -53c-5.33301 -14.667 -8 -38.334 -8 -71.001zM387.001 142.001v-142h-147v142h147z" />
    <glyph glyph-name="at" unicode="@" horiz-adv-x="985" 
d="M587 380c0 25.333 -7.33301 46.001 -22 62.001s-34.334 24 -59.001 24c-33.333 0 -61.666 -14.667 -84.999 -44c-22 -26.667 -33 -57.334 -33 -92.001c0 -60 26.333 -90 79 -90c34.667 0 63.667 15 87 45c22 28 33 59.667 33 95zM617 498.001l13 53.9971h89l-48 -216
c-11.333 -50.667 -17 -78.667 -17 -84c0 -14 5 -21 15 -21c36.667 0 66 21.333 88 64c17.333 34.667 26 72.334 26 113.001c0 80.667 -26 144 -78 190c-50 44 -116 66 -198 66c-86.667 0 -156.334 -28.667 -209.001 -86s-79 -129.666 -79 -216.999
c0 -89.333 28 -161.5 84 -216.5s128.667 -82.5 218 -82.5c82.667 0 153.334 27.333 212.001 82h90c-34.667 -51.333 -79 -91.333 -133 -120s-112.333 -43 -175 -43c-110.667 0 -204.334 36.167 -281.001 108.5s-115 163.5 -115 273.5c0 108 38 198.667 114 272
s168 110 276 110c95.333 0 177.333 -27.667 246 -83c73.333 -59.333 110 -135.666 110 -228.999c0 -95.333 -34 -171.333 -102 -228c-52.667 -44 -104.667 -66 -156 -66c-16 0 -29.5 4.83301 -40.5 14.5s-16.5 22.5 -16.5 38.5c-36.667 -35.333 -73 -53 -109 -53
c-46 0 -84.5 17.667 -115.5 53s-46.5 76.333 -46.5 123c0 66 19.333 123 58 171c41.333 52 94 78 158 78c54.667 0 95.334 -22 122.001 -66z" />
    <glyph glyph-name="A" unicode="A" horiz-adv-x="730" 
d="M279 726h175l255 -726h-164l-47 150h-267l-51 -150h-159zM271 275h194l-99 287z" />
    <glyph glyph-name="B" unicode="B" horiz-adv-x="718" 
d="M70 0l0.000976562 726h358c63.333 0 115 -14.667 155 -44c44.667 -33.333 67 -80.333 67 -141c0 -70 -29.333 -120 -88 -150c74 -27.333 111 -85.333 111 -174c0 -76.667 -30.333 -133.667 -91 -171c-50.667 -30.667 -117.334 -46 -200.001 -46h-312zM221.001 320v-195
h184c78 0 117 35.667 117 107c0 28.667 -11.333 51 -34 67c-20 14 -45 21 -75 21h-192zM221.001 601v-159h177c71.333 0 107 27 107 81c0 52 -37 78 -111 78h-173z" />
    <glyph glyph-name="C" unicode="C" horiz-adv-x="730" 
d="M691 488l-150.999 -0.000976562c-10 36 -22.667 63 -38 81c-27.333 32 -68.333 48 -123 48c-64 0 -112 -28.333 -144 -85c-26 -45.333 -39 -102.666 -39 -171.999c0 -68 13.333 -124.333 40 -169c32 -54.667 79.667 -82 143 -82c88 0 141.667 46.667 161 140h151
c-16 -84.667 -51 -150.5 -105 -197.5s-124 -70.5 -210 -70.5c-109.333 0 -193 37 -251 111c-53.333 67.333 -80 157.333 -80 270c0 111.333 27 201.333 81 270c59.333 75.333 143.333 113 252 113c99.333 0 178.666 -29.333 237.999 -88c50 -50 75 -106.333 75 -169z" />
    <glyph glyph-name="D" unicode="D" horiz-adv-x="731" 
d="M70 0v726h320c109.333 0 189.333 -40.333 240 -121c37.333 -59.333 56 -134.333 56 -225c0 -97.333 -20.333 -180 -61 -248c-52.667 -88 -133 -132 -241 -132h-314zM218 601l-0.000976562 -476.001h148c58.667 0 102.334 27.667 131.001 83
c22.667 42.667 34 96.334 34 161.001c0 154.667 -55.667 232 -167 232h-146z" />
    <glyph glyph-name="E" unicode="E" horiz-adv-x="667" 
d="M70 726h536v-125h-385v-150h353v-125h-353v-201h401v-125h-552v726z" />
    <glyph glyph-name="F" unicode="F" horiz-adv-x="613" 
d="M70 726h517v-125h-366v-150h320v-125h-320v-326h-151v726z" />
    <glyph glyph-name="G" unicode="G" horiz-adv-x="790" 
d="M417 269l0.00195312 122h303v-391h-101l-15 91c-26 -32 -51.667 -56 -77 -72c-40.667 -25.333 -90.334 -38 -149.001 -38c-105.333 0 -188.333 37.667 -249 113c-56 69.333 -84 158.333 -84 267c0 112.667 30 204 90 274c63.333 73.333 150.666 110 261.999 110
c101.333 0 182.333 -28.333 243 -85c51.333 -48 77 -101.333 77 -160h-151c0 20.667 -12.667 43.667 -38 69c-32.667 32 -72.667 48 -120 48c-70.667 0 -124.667 -25.667 -162 -77c-33.333 -45.333 -50 -105 -50 -179c0 -76 16.333 -135.667 49 -179
c37.333 -48.667 92.333 -73 165 -73c31.333 0 61 8.33301 89 25c44.667 26.667 73.667 71.667 87 135h-169z" />
    <glyph glyph-name="H" unicode="H" horiz-adv-x="725" 
d="M221 726v-275h283v275h151v-726h-151v326h-283v-326h-151v726h151z" />
    <glyph glyph-name="I" unicode="I" horiz-adv-x="291" 
d="M221 726v-726h-151v726h151z" />
    <glyph glyph-name="J" unicode="J" horiz-adv-x="561" 
d="M340 726h151v-516c0 -152.667 -75 -229 -225 -229c-104.667 0 -174.334 31.333 -209.001 94c-21.333 38.667 -32 104.667 -32 198h141c0 -64 4.33301 -106.667 13 -128c11.333 -28 36 -42 74 -42c34.667 0 58.334 9.66699 71.001 29c10.667 16 16 42 16 78v516z" />
    <glyph glyph-name="K" unicode="K" horiz-adv-x="716" 
d="M221 726v-295l277 295h196l-296 -297l313 -429h-195l-224 319l-71 -73v-246h-151v726h151z" />
    <glyph glyph-name="L" unicode="L" horiz-adv-x="611" 
d="M221 726v-601h362v-125h-513v726h151z" />
    <glyph glyph-name="M" unicode="M" horiz-adv-x="842" 
d="M70 726h221l131 -572l131 572h219v-726h-141v607l-137 -607h-149l-132 607l-2 -607h-141v726z" />
    <glyph glyph-name="N" unicode="N" horiz-adv-x="731" 
d="M70 726h160l288 -505l2 505h141v-726h-152l-295 518l-3 -518h-141v726z" />
    <glyph glyph-name="O" unicode="O" horiz-adv-x="786" 
d="M45 363c0 186.667 71.333 306 214 358c44 16 88.667 24 134 24c55.333 0 107 -10.667 155 -32c50.667 -23.333 91.667 -56.333 123 -99c46.667 -64.667 70 -148.334 70 -251.001c0 -186.667 -71.333 -306 -214 -358c-44 -16 -88.667 -24 -134 -24
c-55.333 0 -107 10.667 -155 32c-50.667 23.333 -91.667 56.333 -123 99c-46.667 64.667 -70 148.334 -70 251.001zM196 363c0 -72 14.667 -130.333 44 -175c34.667 -52.667 85.667 -79 153 -79s118.333 26.333 153 79c29.333 44.667 44 103 44 175s-14.667 130.333 -44 175
c-34.667 52.667 -85.667 79 -153 79s-118.333 -26.333 -153 -79c-29.333 -44.667 -44 -103 -44 -175z" />
    <glyph glyph-name="P" unicode="P" horiz-adv-x="671" 
d="M221 262v-262h-151v726h332c70.667 0 125.667 -20.833 165 -62.5s59 -98.167 59 -169.5c0 -51.333 -14 -98 -42 -140c-41.333 -61.333 -104.333 -92 -189 -92h-174zM221 601v-214h141c75.333 0 113 37.667 113 113c0 67.333 -44.333 101 -133 101h-121z" />
    <glyph glyph-name="Q" unicode="Q" horiz-adv-x="786" 
d="M402 197l78.001 81l77 -71c22 40 33 91.667 33 155c0 71.333 -14.667 129.666 -44 174.999c-34.667 53.333 -85.667 80 -153 80s-118.333 -26.667 -153 -80c-29.333 -45.333 -44 -103.666 -44 -174.999s14.667 -129.333 44 -174c34.667 -52.667 85.667 -79 153 -79
c29.333 0 56.666 6.33301 81.999 19zM744.001 29l-79 -81.999l-86 82c-53.333 -32 -115.333 -48 -186 -48c-46 0 -90 7.66699 -132 23c-144 52 -216 171.333 -216 358c0 187.333 71.333 307 214 359c44 16 88.667 24 134 24c122 0 214.667 -44 278 -132
c46.667 -64.667 70 -148.334 70 -251.001c0 -108 -25 -194 -75 -258z" />
    <glyph glyph-name="R" unicode="R" horiz-adv-x="712" 
d="M221 284l0.000976562 -284h-151v726h370c84.667 0 146.667 -26.333 186 -79c27.333 -36.667 41 -78.667 41 -126c0 -40 -9 -75 -27 -105c-20 -33.333 -48 -56 -84 -68c34 -14.667 56.667 -31.667 68 -51c15.333 -26 23 -70.333 23 -133c0 -60 -0.333008 -86.667 -1 -80
c3.33301 -34.667 14.666 -56 33.999 -64v-20h-168c-10.667 35.333 -16 84.333 -16 147c0 54 -5.66699 89 -17 105c-15.333 21.333 -49 32 -101 32h-157zM221.001 601v-195h178c78 0 117 33 117 99c0 64 -35.667 96 -107 96h-188z" />
    <glyph glyph-name="S" unicode="S" horiz-adv-x="673" 
d="M39 224h145.002c0 -40.667 16 -71.334 48 -92.001c27.333 -17.333 62.666 -26 105.999 -26c101.333 0 152 31.333 152 94c0 28 -16 49.667 -48 65c-13.333 6 -41.333 14.333 -84 25l-146 36c-108 26.667 -162 92 -162 196c0 55.333 17 102.333 51 141
c48 54.667 124 82 228 82c99.333 0 174 -28 224 -84c38.667 -43.333 58 -93.666 58 -150.999h-145c-8.66699 73.333 -58 110 -148 110c-33.333 0 -61.333 -6 -84 -18c-28.667 -15.333 -43 -38.333 -43 -69c0 -25.333 9 -44.333 27 -57c10 -6.66699 26.667 -13 50 -19
l177 -43c58.667 -14 102.667 -33.333 132 -58c38.667 -32 58 -77.667 58 -137c0 -94 -39.667 -161 -119 -201c-48.667 -24.667 -104.334 -37 -167.001 -37c-89.333 0 -161 18 -215 54c-63.333 42 -95 105 -95 189z" />
    <glyph glyph-name="T" unicode="T" horiz-adv-x="617" 
d="M384 601v-601h-151v601h-219v125h589v-125h-219z" />
    <glyph glyph-name="U" unicode="U" horiz-adv-x="717" 
d="M70 726l151 -0.000976562v-472c0 -43.333 10.667 -77.666 32 -102.999c22.667 -28 55 -42 97 -42c97.333 0 146 46 146 138v479h151v-470c0 -183.333 -98 -275 -294 -275c-88 0 -156.333 21.667 -205 65c-52 46 -78 112.667 -78 200v480z" />
    <glyph glyph-name="V" unicode="V" horiz-adv-x="673" 
d="M19 726h162l156 -550l160 550h157l-246 -726h-145z" />
    <glyph glyph-name="W" unicode="W" horiz-adv-x="954" 
d="M16 726l162 -0.000976562l73 -320c20 -89.333 34 -159.666 42 -210.999l28 151l75 380h161l80 -376c9.33301 -48 18.666 -99.667 27.999 -155l17 84c6 29.333 16.667 77 32 143l71 304h154l-204 -726h-146l-75 364c-9.33301 48 -21.666 115.333 -36.999 202
c-5.33301 -32 -13 -73.667 -23 -125l-31 -158l-60 -283h-142z" />
    <glyph glyph-name="X" unicode="X" horiz-adv-x="673" 
d="M27 726h181l129 -235l132 235h175l-221 -349l236 -377h-185l-137 248l-146 -248h-177l234 371z" />
    <glyph glyph-name="Y" unicode="Y" horiz-adv-x="673" 
d="M22 726h172l150 -316l143 316h172l-243 -452v-274h-151v274z" />
    <glyph glyph-name="Z" unicode="Z" horiz-adv-x="618" 
d="M35 726h557v-128l-385 -470h385v-128h-567v129l375 469h-365v128z" />
    <glyph glyph-name="bracketleft" unicode="[" horiz-adv-x="336" 
d="M187 633v-734h125v-97h-248v928h248v-97h-125z" />
    <glyph glyph-name="backslash" unicode="\" horiz-adv-x="280" 
d="M196 -19l-230 764h118l230 -764h-118z" />
    <glyph glyph-name="bracketright" unicode="]" horiz-adv-x="336" 
d="M149 -101v734h-125v97h248v-928h-248v97h125z" />
    <glyph glyph-name="asciicircum" unicode="^" horiz-adv-x="590" 
d="M173 326h-110l182 379h100l182 -379h-111l-121 266z" />
    <glyph glyph-name="underscore" unicode="_" 
d="M562 -126h-562v50h562v-50z" />
    <glyph glyph-name="grave" unicode="`" horiz-adv-x="336" 
d="M125 610l-148 147h155l95 -147h-102z" />
    <glyph glyph-name="a" unicode="a" horiz-adv-x="567" 
d="M188 364l-136 0.000976562c6.66699 70.667 31.667 120.667 75 150c36.667 25.333 91.667 38 165 38c60 0 108.667 -11 146 -33c45.333 -26.667 68 -67.667 68 -123v-291c0 -48.667 10.333 -76.334 31 -83.001v-22h-152c-6 18 -10.333 39.333 -13 64
c-50.667 -52 -108.667 -78 -174 -78c-49.333 0 -88.833 13.833 -118.5 41.5s-44.5 66.167 -44.5 115.5c0 62.667 27.333 110.667 82 144c46 28 102.333 42 169 42c54.667 0 82 15.667 82 47c0 42 -31 63 -93 63c-51.333 0 -80.333 -25 -87 -75zM368 262.001
c-16.667 -12.667 -49.334 -22.666 -98.001 -29.999c-30 -4.66699 -52 -11.667 -66 -21c-18.667 -12.667 -28 -32.334 -28 -59.001c0 -43.333 22 -65 66 -65c32.667 0 61.834 9.66699 87.501 29s38.5 45 38.5 77v69z" />
    <glyph glyph-name="b" unicode="b" horiz-adv-x="618" 
d="M317 430c-43.333 0 -75.333 -17.667 -96 -53c-16.667 -28.667 -25 -66 -25 -112c0 -42.667 8.66699 -79 26 -109c20.667 -36 51 -54 91 -54c42.667 0 74.667 16 96 48c19.333 27.333 29 63 29 107c0 115.333 -40.333 173 -121 173zM201 726v-258c41.333 56 94 84 158 84
c74 0 131 -28 171 -84c35.333 -49.333 53 -112.666 53 -189.999c0 -80.667 -17.333 -147.334 -52 -200.001c-40 -61.333 -98.333 -92 -175 -92c-71.333 0 -122.333 27.333 -153 82l-2 -68h-141v726h141z" />
    <glyph glyph-name="c" unicode="c" horiz-adv-x="564" 
d="M386 196l141.998 -0.000976562c-6 -66 -31.5 -117.5 -76.5 -154.5s-101.167 -55.5 -168.5 -55.5c-82 0 -144.333 24.667 -187 74c-40.667 46.667 -61 111.334 -61 194.001c0 90.667 19.667 161.667 59 213c44 56.667 110 85 198 85c57.333 0 107.333 -13.333 150 -40
c58 -36.667 87 -92 87 -166h-143c-10 58 -41.333 87 -94 87c-39.333 0 -68.666 -17 -87.999 -51c-16 -28 -24 -63 -24 -105c0 -48 4.66699 -84.333 14 -109c16.667 -44 48.334 -66 95.001 -66c25.333 0 47.833 9.33301 67.5 28s29.5 40.667 29.5 66z" />
    <glyph glyph-name="d" unicode="d" horiz-adv-x="617" 
d="M557 726l-0.000976562 -726.001h-138v68c-32.667 -54.667 -85 -82 -157 -82c-76 0 -134.333 30.333 -175 91c-34.667 52 -52 118 -52 198c0 76.667 17.667 140.334 53 191.001c40.667 57.333 97.667 86 171 86c66.667 0 118.334 -28 155.001 -84l2 258h141z
M300.999 429.999c-43.333 0 -75.333 -17.667 -96 -53c-16.667 -28.667 -25 -66 -25 -112c0 -42.667 8.66699 -79 26 -109c20.667 -36 51 -54 91 -54c42.667 0 74.667 16 96 48c19.333 27.333 29 63 29 107c0 115.333 -40.333 173 -121 173z" />
    <glyph glyph-name="e" unicode="e" horiz-adv-x="580" 
d="M394 158l145.001 -0.000976562c-16 -54.667 -44.833 -97 -86.5 -127s-91.5 -45 -149.5 -45c-178.667 0 -268 98 -268 294c0 83.333 22.5 149.5 67.5 198.5s108.5 73.5 190.5 73.5c84 0 147.333 -24 190 -72c41.333 -45.333 62 -110.666 62 -195.999v-53h-365
c0 -88 41 -132 123 -132c20.667 0 39.667 5.16699 57 15.5s28.666 24.833 33.999 43.5zM180.001 322.999h219.999c-7.33301 75.333 -43.666 113 -108.999 113s-102.333 -37.667 -111 -113z" />
    <glyph glyph-name="f" unicode="f" horiz-adv-x="337" 
d="M229 437v-437h-141v437h-78v101h78v43c0 102 52.667 153 158 153h73v-116h-40c-22 0 -35.833 -3.83301 -41.5 -11.5s-8.5 -23.5 -8.5 -47.5v-21h93v-101h-93z" />
    <glyph glyph-name="g" unicode="g" horiz-adv-x="617" 
d="M422 538l135.001 0.00195312v-509c0 -72 -12 -126 -36 -162c-41.333 -61.333 -119.666 -92 -234.999 -92c-60 0 -111.667 11.667 -155 35c-52.667 29.333 -79 71.666 -79 126.999h153c4.66699 -22.667 17 -38.334 37 -47.001c13.333 -5.33301 34 -8 62 -8
c78.667 0 118 42.667 118 128v67h-4c-34.667 -60.667 -83.334 -91 -146.001 -91c-76.667 0 -136.667 29.333 -180 88c-38 52.667 -57 119 -57 199c0 76.667 18.333 140.667 55 192c41.333 58 99 87 173 87c73.333 0 125.666 -31.333 156.999 -94zM301.001 430.002
c-43.333 0 -75.333 -17.667 -96 -53c-16.667 -28.667 -25 -66 -25 -112c0 -42.667 8.66699 -79 26 -109c20.667 -36 51 -54 91 -54c42.667 0 74.667 16 96 48c19.333 27.333 29 63 29 107c0 115.333 -40.333 173 -121 173z" />
    <glyph glyph-name="h" unicode="h" horiz-adv-x="605" 
d="M201 726l-0.000976562 -258c12 26.667 34.333 47.667 67 63c28.667 14 59 21 91 21c56.667 0 101.834 -16 135.501 -48s50.5 -76 50.5 -132v-372h-141v327c0 30 -4 52.333 -12 67c-14 26 -40.667 39 -80 39c-36 0 -63.5 -11.667 -82.5 -35s-28.5 -53.333 -28.5 -90v-308
h-141v726h141z" />
    <glyph glyph-name="i" unicode="i" horiz-adv-x="261" 
d="M201 538v-538h-141v538h141zM201 732v-131h-141v131h141z" />
    <glyph glyph-name="j" unicode="j" horiz-adv-x="261" 
d="M60 538h141v-594c0 -66.667 -16.667 -111 -50 -133c-27.333 -18 -80 -27 -158 -27v113c25.333 0 42 2.33301 50 7c11.333 6 17 20.333 17 43v591zM201 732v-131h-141v131h141z" />
    <glyph glyph-name="k" unicode="k" 
d="M201 726v-392l178 204h173l-189 -208l194 -330h-169l-128 231l-59 -61v-170h-141v726h141z" />
    <glyph glyph-name="l" unicode="l" horiz-adv-x="261" 
d="M201 726v-726h-141v726h141z" />
    <glyph glyph-name="m" unicode="m" horiz-adv-x="889" 
d="M60 538h135.999v-79c34.667 62 86 93 154 93c36 0 65 -6.5 87 -19.5s43 -35.167 63 -66.5c37.333 57.333 85 86 143 86c56.667 0 101.834 -16 135.501 -48s50.5 -76 50.5 -132v-372h-141v327c0 70.667 -25.333 106 -76 106c-64.667 0 -97 -37 -97 -111v-322h-141v323
c0 73.333 -28.333 110 -85 110c-58.667 0 -88 -34.333 -88 -103v-330h-141v538z" />
    <glyph glyph-name="n" unicode="n" horiz-adv-x="605" 
d="M60 538h134.999v-79c16.667 26 33.667 45.333 51 58c31.333 23.333 69 35 113 35c56.667 0 101.834 -16 135.501 -48s50.5 -76 50.5 -132v-372h-141v327c0 30 -4 52.333 -12 67c-14 26 -40.667 39 -80 39c-36 0 -63.5 -11.667 -82.5 -35s-28.5 -53.333 -28.5 -90v-308
h-141v538z" />
    <glyph glyph-name="o" unicode="o" horiz-adv-x="619" 
d="M310 552c84.667 0 151.5 -25.668 200.5 -77.001s73.5 -119.666 73.5 -204.999s-24.5 -154 -73.5 -206s-115.833 -78 -200.5 -78s-151.667 25.833 -201 77.5s-74 120.167 -74 205.5s24.667 153.833 74 205.5s116.333 77.5 201 77.5zM310 432.999
c-86.667 0 -130 -54.333 -130 -163c0 -110 43.333 -165 130 -165c86 0 129 54.667 129 164s-43 164 -129 164z" />
    <glyph glyph-name="p" unicode="p" horiz-adv-x="618" 
d="M317 430c-43.333 0 -75.333 -17.667 -96 -53c-16.667 -28.667 -25 -66 -25 -112c0 -42.667 8.66699 -79 26 -109c20.667 -36 51 -54 91 -54c42.667 0 74.667 16 96 48c19.333 27.333 29 63 29 107c0 115.333 -40.333 173 -121 173zM196 538v-78
c19.333 29.333 37.666 50 54.999 62c28 20 63.667 30 107 30c74 0 131 -29 171 -87c36 -50.667 54 -114.667 54 -192c0 -80 -17.667 -145.667 -53 -197c-40 -60 -98.333 -90 -175 -90c-67.333 0 -117.666 27.667 -150.999 83l-3 1v-286h-141v754h136z" />
    <glyph glyph-name="q" unicode="q" horiz-adv-x="618" 
d="M301 430c-43.333 0 -75.333 -17.667 -96 -53c-16.667 -28.667 -25 -66 -25 -112c0 -42.667 8.66699 -79 26 -109c20.667 -36 51 -54 91 -54c42.667 0 74.667 16 96 48c19.333 27.333 29 63 29 107c0 115.333 -40.333 173 -121 173zM422 538h136v-754h-141v286l-3 -1
c-32.667 -55.333 -83 -83 -151 -83c-76.667 0 -135 30 -175 90c-35.333 51.333 -53 117 -53 197c0 76.667 18 140.667 54 192c40.667 58 97.667 87 171 87c68.667 0 122 -30.667 160 -92z" />
    <glyph glyph-name="r" unicode="r" horiz-adv-x="389" 
d="M60 538l136 0.000976562v-93c21.333 36.667 39 61.334 53 74.001c27.333 24.667 59.333 35.667 96 33l28 -2v-144l-41 3c-47.333 3.33301 -83 -10.334 -107 -41.001c-16 -20.667 -24 -49.334 -24 -86.001v-282h-141v538z" />
    <glyph glyph-name="s" unicode="s" horiz-adv-x="563" 
d="M512 374l-137.999 -0.000976562c-4 22.667 -10.667 38.667 -20 48c-15.333 15.333 -40.333 23 -75 23c-58 0 -87 -17.667 -87 -53c0 -21.333 29 -38.333 87 -51c86 -18.667 139.667 -33 161 -43c58.667 -27.333 88 -69.666 88 -126.999c0 -68.667 -28.667 -119 -86 -151
c-40.667 -22.667 -90.334 -34 -149.001 -34c-71.333 0 -129.333 12.667 -174 38c-56 32 -84 81.333 -84 148h145c0 -52.667 39 -79 117 -79c22.667 0 42 3.66699 58 11c21.333 10 32 25 32 45c0 22.667 -28.667 40.334 -86 53.001c-86 18.667 -139.333 33 -160 43
c-58 27.333 -87 69.666 -87 126.999c0 59.333 21.667 105 65 137c39.333 28.667 90 43 152 43c160.667 0 241 -59.333 241 -178z" />
    <glyph glyph-name="t" unicode="t" horiz-adv-x="337" 
d="M83 682h141v-145h88v-101h-88v-292c0 -17.333 3.33301 -28.666 10 -33.999c8 -8 24.333 -11 49 -9l29 2v-106l-66 -3c-62 -2.66699 -106.667 7.66602 -134 30.999c-19.333 16.667 -29 45 -29 85v326h-72v101h72v145z" />
    <glyph glyph-name="u" unicode="u" horiz-adv-x="603" 
d="M60 538h141v-334c0 -66 30.667 -99 92 -99c34.667 0 62 12 82 36c18 22 27 51 27 87v310h141v-538h-135v76c-36 -60 -91.333 -90 -166 -90c-60.667 0 -106.667 18 -138 54c-29.333 34 -44 82 -44 144v354z" />
    <glyph glyph-name="v" unicode="v" 
d="M13 538h151l114 -397l120 397h151l-194 -538h-149z" />
    <glyph glyph-name="w" unicode="w" horiz-adv-x="786" 
d="M10 538h151l84 -387l77 387h143l81 -387l85 387h146l-155 -538h-145l-84 393l-86 -393h-145z" />
    <glyph glyph-name="x" unicode="x" 
d="M22 538h172l91 -157l89 157h167l-177 -264l183 -274h-175l-93 162l-93 -162h-171l183 274z" />
    <glyph glyph-name="y" unicode="y" 
d="M10 538l157.999 -0.000976562l115 -396l112 396h150l-185 -528c-32.667 -92.667 -59.667 -152 -81 -178c-28 -34 -70.333 -50 -127 -48l-64 2v113l27 -2c26.667 -2 47.334 2.33301 62.001 13s25 33.334 31 68.001z" />
    <glyph glyph-name="z" unicode="z" horiz-adv-x="504" 
d="M474 422l-279 -309h290v-113h-465v110l283 315h-264v113h435v-116z" />
    <glyph glyph-name="braceleft" unicode="{" horiz-adv-x="393" 
d="M369 -109l-0.000976562 -88.999h-84c-41.333 0 -75.333 13 -102 39s-40 59.333 -40 100v202c0 24.667 -10 44 -30 58c-17.333 12.667 -39 19 -65 19v93c26 0 47.667 6 65 18c20 14 30 33.333 30 58v202c0 40 13.667 73.167 41 99.5s61 39.5 101 39.5h84v-89h-46
c-38 0 -57 -21.667 -57 -65v-198c0 -36.667 -15 -65.334 -45 -86.001c-21.333 -14.667 -44.666 -23 -69.999 -25c76.667 -11.333 115 -47 115 -107v-198c0 -47.333 19 -71 57 -71h46z" />
    <glyph glyph-name="bar" unicode="|" horiz-adv-x="282" 
d="M84 -19v764h113v-764h-113z" />
    <glyph glyph-name="braceright" unicode="}" horiz-adv-x="393" 
d="M345 312l-0.000976562 -92c-26 0 -48 -6 -66 -18c-20 -13.333 -30 -32.666 -30 -57.999v-202c0 -40 -13.5 -73.333 -40.5 -100s-60.5 -40 -100.5 -40h-84v89h46c37.333 0 56 22.333 56 67v198c0 65.333 38.667 101.666 116 108.999
c-32.667 4.66699 -59.334 16 -80.001 34c-24 20 -36 45.667 -36 77v198c0 44.667 -18.667 67 -56 67h-46v89h84c40.667 0 74.334 -13 101.001 -39s40 -59 40 -99v-202c0 -24 10.333 -43.333 31 -58c18.667 -13.333 40.334 -20 65.001 -20z" />
    <glyph glyph-name="asciitilde" unicode="~" horiz-adv-x="590" 
d="M492 347l36 -91c-20.667 -29.333 -37.334 -49 -50.001 -59c-22.667 -18.667 -48 -28 -76 -28c-20.667 0 -64.334 15.667 -131.001 47c-32.667 15.333 -62 23 -88 23c-33.333 0 -61.666 -24.667 -84.999 -74l-36 91c30 58 72 87 126 87c24 0 53 -7.33301 87 -22
c74.667 -32 117.334 -48 128.001 -48c18 0 35 8 51 24c10 10 22.667 26.667 38 50z" />
    <glyph glyph-name="c128" horiz-adv-x="789" 
d="M384 601v-150h87c72 0 131.667 -19 179 -57c51.333 -41.333 77 -97.333 77 -168c0 -78 -28.333 -136.667 -85 -176c-48.667 -33.333 -113.667 -50 -195 -50v125c86 0 129 35 129 105c0 64 -42.667 96 -128 96h-64v-326h-151v601h-219v125h589v-125h-219z" />
    <glyph glyph-name="c128" unicode="&#x402;" horiz-adv-x="789" 
d="M384 601v-150h87c72 0 131.667 -19 179 -57c51.333 -41.333 77 -97.333 77 -168c0 -78 -28.333 -136.667 -85 -176c-48.667 -33.333 -113.667 -50 -195 -50v125c86 0 129 35 129 105c0 64 -42.667 96 -128 96h-64v-326h-151v601h-219v125h589v-125h-219z" />
    <glyph glyph-name="c129" horiz-adv-x="613" 
d="M70 726h517v-125h-366v-601h-151v726zM493 937l-148 -147h-102l95 147h155z" />
    <glyph glyph-name="c129" unicode="&#x403;" horiz-adv-x="613" 
d="M70 726h517v-125h-366v-601h-151v726zM493 937l-148 -147h-102l95 147h155z" />
    <glyph glyph-name="c141" horiz-adv-x="716" 
d="M221 726v-295l277 295h196l-296 -297l313 -429h-195l-224 319l-71 -73v-246h-151v726h151zM516 937l-148 -147h-102l95 147h155z" />
    <glyph glyph-name="c141" unicode="&#x40c;" horiz-adv-x="716" 
d="M221 726v-295l277 295h196l-296 -297l313 -429h-195l-224 319l-71 -73v-246h-151v726h151zM516 937l-148 -147h-102l95 147h155z" />
    <glyph glyph-name="c142" horiz-adv-x="789" 
d="M384 601l0.000976562 -150h87c71.333 0 129.666 -18.667 174.999 -56c48.667 -40 73 -94.667 73 -164v-231h-151v230c0 64 -40 96 -120 96h-64v-326h-151v601h-219v125h589v-125h-219z" />
    <glyph glyph-name="c142" unicode="&#x40b;" horiz-adv-x="789" 
d="M384 601l0.000976562 -150h87c71.333 0 129.666 -18.667 174.999 -56c48.667 -40 73 -94.667 73 -164v-231h-151v230c0 64 -40 96 -120 96h-64v-326h-151v601h-219v125h589v-125h-219z" />
    <glyph glyph-name="c143" horiz-adv-x="725" 
d="M221 726v-601h283v601h151v-726h-222v-154h-141v154h-222v726h151z" />
    <glyph glyph-name="c143" unicode="&#x40f;" horiz-adv-x="725" 
d="M221 726v-601h283v601h151v-726h-222v-154h-141v154h-222v726h151z" />
    <glyph glyph-name="c144" horiz-adv-x="605" 
d="M60 726h140.999v-53h111v-87h-111v-118c12 26.667 34.333 47.667 67 63c28.667 14 59 21 91 21c56.667 0 101.834 -16 135.501 -48s50.5 -76 50.5 -132c0 -138.667 -4.66699 -238.334 -14 -299.001c-12 -77.333 -35.667 -134.666 -71 -171.999
c-36.667 -39.333 -93 -64.333 -169 -75v119c46.667 12.667 77.667 48 93 106c13.333 50.667 20 142.667 20 276c0 30 -4 52.333 -12 67c-14 26 -40.667 39 -80 39c-36 0 -63.5 -11.667 -82.5 -35s-28.5 -53.333 -28.5 -90v-308h-141v586h-60v87h60v53z" />
    <glyph glyph-name="c144" unicode="&#x452;" horiz-adv-x="605" 
d="M60 726h140.999v-53h111v-87h-111v-118c12 26.667 34.333 47.667 67 63c28.667 14 59 21 91 21c56.667 0 101.834 -16 135.501 -48s50.5 -76 50.5 -132c0 -138.667 -4.66699 -238.334 -14 -299.001c-12 -77.333 -35.667 -134.666 -71 -171.999
c-36.667 -39.333 -93 -64.333 -169 -75v119c46.667 12.667 77.667 48 93 106c13.333 50.667 20 142.667 20 276c0 30 -4 52.333 -12 67c-14 26 -40.667 39 -80 39c-36 0 -63.5 -11.667 -82.5 -35s-28.5 -53.333 -28.5 -90v-308h-141v586h-60v87h60v53z" />
    <glyph glyph-name="c157" 
d="M201 538v-204l178 204h173l-189 -208l194 -330h-169l-128 231l-59 -61v-170h-141v538h141zM425 733l-114 -113h-82l74 113h122z" />
    <glyph glyph-name="c157" unicode="&#x45c;" 
d="M201 538v-204l178 204h173l-189 -208l194 -330h-169l-128 231l-59 -61v-170h-141v538h141zM425 733l-114 -113h-82l74 113h122z" />
    <glyph glyph-name="c158" horiz-adv-x="612" 
d="M67 726h140.999v-53h111v-87h-111v-118c12 26.667 34.333 47.667 67 63c28.667 14 59 21 91 21c56.667 0 101.834 -16 135.501 -48s50.5 -76 50.5 -132v-372h-141v327c0 30 -4 52.333 -12 67c-14 26 -40.667 39 -80 39c-36 0 -63.5 -11.667 -82.5 -35
s-28.5 -53.333 -28.5 -90v-308h-141v586h-60v87h60v53z" />
    <glyph glyph-name="c158" unicode="&#x45b;" horiz-adv-x="612" 
d="M67 726h140.999v-53h111v-87h-111v-118c12 26.667 34.333 47.667 67 63c28.667 14 59 21 91 21c56.667 0 101.834 -16 135.501 -48s50.5 -76 50.5 -132v-372h-141v327c0 30 -4 52.333 -12 67c-14 26 -40.667 39 -80 39c-36 0 -63.5 -11.667 -82.5 -35
s-28.5 -53.333 -28.5 -90v-308h-141v586h-60v87h60v53z" />
    <glyph glyph-name="nonbreakingspace" unicode="&#xa0;" horiz-adv-x="500" 
 />
    <glyph glyph-name="exclamdown" unicode="&#xa1;" horiz-adv-x="708" 
d="M9 726l171.001 -0.000976562l196 -406l151 406h171l-267 -614c-19.333 -45.333 -40.666 -77.666 -63.999 -96.999c-26.667 -22.667 -62.334 -34 -107.001 -34c-38 0 -69 3 -93 9v129c17.333 -8 37 -12 59 -12c21.333 0 37.666 4.66699 48.999 14
c8 6.66699 17.667 21 29 43zM273.001 936.999c4 -20.667 10.334 -35.667 19.001 -45c15.333 -16.667 41.666 -25 78.999 -25c36.667 0 63 8.33301 79 25c8.66699 9.33301 15 24.333 19 45h67c0 -44.667 -16.667 -81 -50 -109c-30.667 -25.333 -69 -38 -115 -38
c-58.667 0 -103 19.333 -133 58c-21.333 28 -32 57.667 -32 89h67z" />
    <glyph glyph-name="exclamdown" unicode="&#x40e;" horiz-adv-x="708" 
d="M9 726l171.001 -0.000976562l196 -406l151 406h171l-267 -614c-19.333 -45.333 -40.666 -77.666 -63.999 -96.999c-26.667 -22.667 -62.334 -34 -107.001 -34c-38 0 -69 3 -93 9v129c17.333 -8 37 -12 59 -12c21.333 0 37.666 4.66699 48.999 14
c8 6.66699 17.667 21 29 43zM273.001 936.999c4 -20.667 10.334 -35.667 19.001 -45c15.333 -16.667 41.666 -25 78.999 -25c36.667 0 63 8.33301 79 25c8.66699 9.33301 15 24.333 19 45h67c0 -44.667 -16.667 -81 -50 -109c-30.667 -25.333 -69 -38 -115 -38
c-58.667 0 -103 19.333 -133 58c-21.333 28 -32 57.667 -32 89h67z" />
    <glyph glyph-name="cent" unicode="&#xa2;" 
d="M395 538l149.999 -0.000976562l-185 -528c-32.667 -92.667 -59.667 -152 -81 -178c-28 -34 -70.333 -50 -127 -48l-64 2v113l27 -2c26.667 -2 47.334 2.33301 62.001 13s25 33.334 31 68.001l-198 560h158l115 -396zM391.999 757.999h66.001
c-8.66699 -98.667 -68.667 -148 -180 -148c-58.667 0 -102.334 19.333 -131.001 58c-20 27.333 -30 57.333 -30 90h67c9.33301 -47.333 42.666 -71 99.999 -71c30.667 0 53 3.33301 67 10c22.667 10.667 36.334 31 41.001 61z" />
    <glyph glyph-name="cent" unicode="&#x45e;" 
d="M395 538l149.999 -0.000976562l-185 -528c-32.667 -92.667 -59.667 -152 -81 -178c-28 -34 -70.333 -50 -127 -48l-64 2v113l27 -2c26.667 -2 47.334 2.33301 62.001 13s25 33.334 31 68.001l-198 560h158l115 -396zM391.999 757.999h66.001
c-8.66699 -98.667 -68.667 -148 -180 -148c-58.667 0 -102.334 19.333 -131.001 58c-20 27.333 -30 57.333 -30 90h67c9.33301 -47.333 42.666 -71 99.999 -71c30.667 0 53 3.33301 67 10c22.667 10.667 36.334 31 41.001 61z" />
    <glyph glyph-name="sterling" unicode="&#xa3;" horiz-adv-x="561" 
d="M340 726h151v-516c0 -152.667 -75 -229 -225 -229c-104.667 0 -174.334 31.333 -209.001 94c-21.333 38.667 -32 104.667 -32 198h141c0 -64 4.33301 -106.667 13 -128c11.333 -28 36 -42 74 -42c34.667 0 58.334 9.66699 71.001 29c10.667 16 16 42 16 78v516z" />
    <glyph glyph-name="sterling" unicode="&#x408;" horiz-adv-x="561" 
d="M340 726h151v-516c0 -152.667 -75 -229 -225 -229c-104.667 0 -174.334 31.333 -209.001 94c-21.333 38.667 -32 104.667 -32 198h141c0 -64 4.33301 -106.667 13 -128c11.333 -28 36 -42 74 -42c34.667 0 58.334 9.66699 71.001 29c10.667 16 16 42 16 78v516z" />
    <glyph glyph-name="currency" unicode="&#xa4;" 
d="M281 247c31.333 0 56.666 11 75.999 33s29 49 29 81s-9.66699 58.667 -29 80s-44.666 32 -75.999 32s-56.333 -10.667 -75 -32s-28 -48 -28 -80s9.33301 -59 28 -81s43.667 -33 75 -33zM-3 144l99.001 98.999c-20.667 34.667 -31 74 -31 118s10.333 82.667 31 116l-99 99
l67 67l99 -99c36.667 22 76 33 118 33c45.333 0 84.666 -11 117.999 -33l99 99l67 -67l-99 -99c22 -34 33 -72.667 33 -116c0 -45.333 -11 -84.666 -33 -117.999l99 -99l-67 -67l-99 99c-32.667 -22 -72 -33 -118 -33c-42.667 0 -82 11 -118 33l-99 -99z" />
    <glyph glyph-name="yen" unicode="&#xa5;" horiz-adv-x="613" 
d="M70 726h384v127h133v-252h-366v-601h-151v726z" />
    <glyph glyph-name="yen" unicode="&#x490;" horiz-adv-x="613" 
d="M70 726h384v127h133v-252h-366v-601h-151v726z" />
    <glyph glyph-name="brokenbar" unicode="&#xa6;" horiz-adv-x="282" 
d="M84 -19v293h113v-293h-113zM84 452v293h113v-293h-113z" />
    <glyph glyph-name="section" unicode="&#xa7;" 
d="M484 550l-128 0.00292969c0 51.333 -26.333 77 -79 77c-18.667 0 -35 -4.66699 -49 -14c-16 -10.667 -24 -24.667 -24 -42c0 -23.333 13 -41.333 39 -54l163 -81c40 -20 69.333 -41 88 -63c22 -27.333 33 -61.333 33 -102c0 -18 -7 -39.333 -21 -64
c-18.667 -33.333 -43.667 -57 -75 -71c42 -34.667 63 -78 63 -130c0 -60 -21.667 -107.667 -65 -143c-40.667 -32.667 -91.667 -49 -153 -49c-78 0 -135.667 25.333 -173 76c-26 35.333 -39 73 -39 113h133c6 -54.667 35.333 -82 88 -82c21.333 0 39 6.66699 53 20
s21 30.666 21 51.999c0 17.333 -6 31.666 -18 42.999c-7.33301 6.66699 -21.333 15.334 -42 26.001l-154 79c-39.333 20 -67 40.667 -83 62c-18 25.333 -27 58.666 -27 99.999c0 53.333 31 98 93 134c-34.667 31.333 -52 70.333 -52 117c0 55.333 20.333 99.666 61 132.999
c37.333 31.333 84.333 47 141 47c62 0 111 -14.667 147 -44c39.333 -32 59 -78.667 59 -140zM197 387.003c-11.333 -4 -21.333 -11.666 -30 -22.999s-13 -23 -13 -35c0 -25.333 15.333 -46.333 46 -63l159 -85c28.667 16 43 38.333 43 67c0 23.333 -19 44.666 -57 63.999z
" />
    <glyph glyph-name="dieresis" unicode="&#xa8;" horiz-adv-x="667" 
d="M70 726h536v-125h-385v-150h353v-125h-353v-201h401v-125h-552v726zM310 924v-116h-127v116h127zM519 924v-116h-127v116h127z" />
    <glyph glyph-name="dieresis" unicode="&#x401;" horiz-adv-x="667" 
d="M70 726h536v-125h-385v-150h353v-125h-353v-201h401v-125h-552v726zM310 924v-116h-127v116h127zM519 924v-116h-127v116h127z" />
    <glyph glyph-name="copyright" unicode="&#xa9;" horiz-adv-x="745" 
d="M757 364c0 -112 -36 -203.833 -108 -275.5s-164 -107.5 -276 -107.5s-204 35.833 -276 107.5s-108 163.5 -108 275.5s36 203.5 108 274.5s164 106.5 276 106.5s204 -35.5 276 -106.5s108 -162.5 108 -274.5zM373 657c-82 0 -148.666 -28.667 -199.999 -86
c-49.333 -54.667 -74 -123.667 -74 -207c0 -82.667 24.667 -152 74 -208c51.333 -58 117.666 -87 198.999 -87s148 29.333 200 88c50 56 75 125 75 207s-25 150.667 -75 206c-52 58 -118.333 87 -199 87zM478.001 306h90.999c-8 -48 -28.167 -86.333 -60.5 -115
s-72.5 -43 -120.5 -43c-63.333 0 -114.166 20.667 -152.499 62s-57.5 93.666 -57.5 156.999c0 64.667 18.667 117.167 56 157.5s88 60.5 152 60.5c49.333 0 89.5 -13.5 120.5 -40.5s50.5 -64.833 58.5 -113.5h-87c-8 44 -38.667 66 -92 66c-69.333 0 -104 -42.667 -104 -128
c0 -35.333 8.66699 -65.666 26 -90.999c19.333 -28 46 -42 80 -42c56 0 86 23.333 90 70z" />
    <glyph glyph-name="ordfeminine" unicode="&#xaa;" horiz-adv-x="735" 
d="M412 445l0.00292969 -125h-210c6 -60 21.667 -108.333 47 -145c31.333 -44 75 -66 131 -66c88 0 141.667 46.667 161 140h151c-16 -84.667 -51 -150.5 -105 -197.5s-124 -70.5 -210 -70.5c-108.667 0 -192.334 37 -251.001 111c-54 68 -81 158 -81 270
c0 111.333 27.333 201.333 82 270c60 75.333 144 113 252 113c99.333 0 178.666 -29.333 237.999 -88c50 -50 75 -106.333 75 -169h-151c-10 36.667 -22.667 63.667 -38 81c-28 32 -69.333 48 -124 48c-46.667 0 -85.334 -17.667 -116.001 -53
c-26.667 -30 -45 -69.667 -55 -119h204z" />
    <glyph glyph-name="ordfeminine" unicode="&#x404;" horiz-adv-x="735" 
d="M412 445l0.00292969 -125h-210c6 -60 21.667 -108.333 47 -145c31.333 -44 75 -66 131 -66c88 0 141.667 46.667 161 140h151c-16 -84.667 -51 -150.5 -105 -197.5s-124 -70.5 -210 -70.5c-108.667 0 -192.334 37 -251.001 111c-54 68 -81 158 -81 270
c0 111.333 27.333 201.333 82 270c60 75.333 144 113 252 113c99.333 0 178.666 -29.333 237.999 -88c50 -50 75 -106.333 75 -169h-151c-10 36.667 -22.667 63.667 -38 81c-28 32 -69.333 48 -124 48c-46.667 0 -85.334 -17.667 -116.001 -53
c-26.667 -30 -45 -69.667 -55 -119h204z" />
    <glyph glyph-name="guillemotleft" unicode="&#xab;" 
d="M258 372l-101 -89l101 -89v-117l-169 145v122l169 145v-117zM473 372l-101 -89l101 -89v-117l-169 145v122l169 145v-117z" />
    <glyph glyph-name="logicalnot" unicode="&#xac;" horiz-adv-x="590" 
d="M436 0v199h-396v113h509v-312h-113z" />
    <glyph glyph-name="registered" unicode="&#xae;" horiz-adv-x="745" 
d="M310 331v-173h-88v411h153c52.667 0 92 -7.33301 118 -22c34 -20 51 -54 51 -102c0 -71.333 -33 -107 -99 -107l105 -180h-104l-95 173h-41zM310 499v-98h77c22 0 38 3.5 48 10.5s15 21.167 15 42.5c0 30 -26.333 45 -79 45h-61zM756 363
c0 -112 -35.999 -203.667 -107.999 -275s-163.667 -107 -275 -107c-112 0 -204 35.667 -276 107s-108 163 -108 275c0 111.333 36.167 202.833 108.5 274.5s164.166 107.5 275.499 107.5c112 0 203.833 -35.667 275.5 -107s107.5 -163 107.5 -275zM646.001 363
c0 81.333 -25.332 150.5 -75.999 207.5s-116.334 85.5 -197.001 85.5c-82 0 -148.667 -28.667 -200 -86c-49.333 -54.667 -74 -123.667 -74 -207c0 -82.667 24.667 -151.667 74 -207c51.333 -58 118 -87 200 -87c80.667 0 147 29 199 87c49.333 56 74 125 74 207z" />
    <glyph glyph-name="macron" unicode="&#xaf;" horiz-adv-x="291" 
d="M221 726v-726h-151v726h151zM111 924v-116h-127v116h127zM308 924v-116h-127v116h127z" />
    <glyph glyph-name="macron" unicode="&#x407;" horiz-adv-x="291" 
d="M221 726v-726h-151v726h151zM111 924v-116h-127v116h127zM308 924v-116h-127v116h127z" />
    <glyph glyph-name="macron" unicode="&#x2c9;" horiz-adv-x="291" 
d="M221 726v-726h-151v726h151zM111 924v-116h-127v116h127zM308 924v-116h-127v116h127z" />
    <glyph glyph-name="degree" unicode="&#xb0;" horiz-adv-x="404" 
d="M58 575c0 40 14 74.167 42 102.5s62 42.5 102 42.5s74.167 -14 102.5 -42s42.5 -62 42.5 -102s-14.167 -74.167 -42.5 -102.5s-62.5 -42.5 -102.5 -42.5s-74 14 -102 42s-42 62 -42 102zM202 663c-24 0 -44.5 -8.66797 -61.5 -26.001s-25.5 -38 -25.5 -62
s8.5 -44.5 25.5 -61.5s37.5 -25.5 61.5 -25.5c24.667 0 45.5 8.33301 62.5 25s25.5 37.334 25.5 62.001c0 24 -8.66699 44.667 -26 62s-38 26 -62 26z" />
    <glyph glyph-name="plusminus" unicode="&#xb1;" horiz-adv-x="590" 
d="M238 451v127h113v-127h199v-113h-199v-127h-113v127h-198v113h198zM40 66v113h510v-113h-510z" />
    <glyph glyph-name="twosuperior" unicode="&#xb2;" horiz-adv-x="291" 
d="M221 726v-726h-151v726h151z" />
    <glyph glyph-name="twosuperior" unicode="&#x406;" horiz-adv-x="291" 
d="M221 726v-726h-151v726h151z" />
    <glyph glyph-name="threesuperior" unicode="&#xb3;" horiz-adv-x="261" 
d="M201 538v-538h-141v538h141zM201 732v-131h-141v131h141z" />
    <glyph glyph-name="threesuperior" unicode="&#x456;" horiz-adv-x="261" 
d="M201 538v-538h-141v538h141zM201 732v-131h-141v131h141z" />
    <glyph glyph-name="acute" unicode="&#xb4;" horiz-adv-x="442" 
d="M60 538h268v95h97v-208h-224v-425h-141v538z" />
    <glyph glyph-name="acute" unicode="&#x491;" horiz-adv-x="442" 
d="M60 538h268v95h97v-208h-224v-425h-141v538z" />
    <glyph glyph-name="mu" unicode="&#xb5;" horiz-adv-x="617" 
d="M67 538h141.001v-334c0 -66 30.667 -99 92 -99c34.667 0 62 12 82 36c18 22 27 51 27 87v310h141v-538h-135v76c-14 -24 -31.667 -44.333 -53 -61c-24.667 -19.333 -49.334 -29 -74.001 -29c-36 0 -62.667 8.66699 -80 26v-221h-141v747z" />
    <glyph glyph-name="mu" unicode="&#x3bc;" horiz-adv-x="617" 
d="M67 538h141.001v-334c0 -66 30.667 -99 92 -99c34.667 0 62 12 82 36c18 22 27 51 27 87v310h141v-538h-135v76c-14 -24 -31.667 -44.333 -53 -61c-24.667 -19.333 -49.334 -29 -74.001 -29c-36 0 -62.667 8.66699 -80 26v-221h-141v747z" />
    <glyph glyph-name="paragraph" unicode="&#xb6;" 
d="M216 -192v543c-64 0 -115.667 13 -155 39c-46 30 -69 75.333 -69 136c0 121.333 82.333 182 247 182h306v-900h-113v814h-103v-814h-113z" />
    <glyph glyph-name="periodcentered" unicode="&#xb7;" horiz-adv-x="280" 
d="M58 256c0 22.667 8 42 24 58s35.333 24 58 24s42 -8 58 -24s24 -35.333 24 -58s-8 -42 -24 -58s-35.333 -24 -58 -24c-23.333 0 -42.833 7.83301 -58.5 23.5s-23.5 35.167 -23.5 58.5z" />
    <glyph glyph-name="periodcentered" unicode="&#x2219;" horiz-adv-x="280" 
d="M58 256c0 22.667 8 42 24 58s35.333 24 58 24s42 -8 58 -24s24 -35.333 24 -58s-8 -42 -24 -58s-35.333 -24 -58 -24c-23.333 0 -42.833 7.83301 -58.5 23.5s-23.5 35.167 -23.5 58.5z" />
    <glyph glyph-name="cedilla" unicode="&#xb8;" horiz-adv-x="580" 
d="M394 158h145.002c-16 -54.667 -44.833 -97 -86.5 -127s-91.5 -45 -149.5 -45c-178.667 0 -268 98 -268 294c0 83.333 22.5 149.5 67.5 198.5s108.5 73.5 190.5 73.5c85.333 0 149.666 -28.333 192.999 -85c39.333 -50.667 59 -120.667 59 -210v-26h-365
c0 -88 41 -132 123 -132c20.667 0 39.667 5.16699 57 15.5s28.666 24.833 33.999 43.5zM180.002 323h219.999c-7.33301 75.333 -43.666 113 -108.999 113s-102.333 -37.667 -111 -113zM258.001 736v-116h-127v116h127zM455.001 736v-116h-127v116h127z" />
    <glyph glyph-name="cedilla" unicode="&#x451;" horiz-adv-x="580" 
d="M394 158h145.002c-16 -54.667 -44.833 -97 -86.5 -127s-91.5 -45 -149.5 -45c-178.667 0 -268 98 -268 294c0 83.333 22.5 149.5 67.5 198.5s108.5 73.5 190.5 73.5c85.333 0 149.666 -28.333 192.999 -85c39.333 -50.667 59 -120.667 59 -210v-26h-365
c0 -88 41 -132 123 -132c20.667 0 39.667 5.16699 57 15.5s28.666 24.833 33.999 43.5zM180.002 323h219.999c-7.33301 75.333 -43.666 113 -108.999 113s-102.333 -37.667 -111 -113zM258.001 736v-116h-127v116h127zM455.001 736v-116h-127v116h127z" />
    <glyph glyph-name="onesuperior" unicode="&#xb9;" horiz-adv-x="1181" 
d="M519 726h141v-726h-150l-297 519l-2 -519h-141v726h159l288 -504zM1121 334c0 -52 -16.667 -93.333 -50 -124s-76.333 -46 -129 -46s-95.5 15.333 -128.5 46s-49.5 72 -49.5 124c0 51.333 16.667 92.5 50 123.5s76 46.5 128 46.5c52.667 0 95.667 -15.333 129 -46
s50 -72 50 -124zM1022 334c0 27.333 -6.33301 49.668 -19 67.001c-14.667 20 -35 30 -61 30s-45.667 -9.5 -59 -28.5s-20 -41.833 -20 -68.5s6.33301 -49 19 -67c14.667 -20 34.667 -30 60 -30c26 0 46.333 10 61 30c12.667 17.333 19 39.666 19 66.999zM791 119.002h303
v-81h-303v81z" />
    <glyph glyph-name="onesuperior" unicode="&#x2116;" horiz-adv-x="1181" 
d="M519 726h141v-726h-150l-297 519l-2 -519h-141v726h159l288 -504zM1121 334c0 -52 -16.667 -93.333 -50 -124s-76.333 -46 -129 -46s-95.5 15.333 -128.5 46s-49.5 72 -49.5 124c0 51.333 16.667 92.5 50 123.5s76 46.5 128 46.5c52.667 0 95.667 -15.333 129 -46
s50 -72 50 -124zM1022 334c0 27.333 -6.33301 49.668 -19 67.001c-14.667 20 -35 30 -61 30s-45.667 -9.5 -59 -28.5s-20 -41.833 -20 -68.5s6.33301 -49 19 -67c14.667 -20 34.667 -30 60 -30c26 0 46.333 10 61 30c12.667 17.333 19 39.666 19 66.999zM791 119.002h303
v-81h-303v81z" />
    <glyph glyph-name="ordmasculine" unicode="&#xba;" 
d="M527 196c-6 -66 -31.5 -117.499 -76.5 -154.499s-101.167 -55.5 -168.5 -55.5c-81.333 0 -143.666 25 -186.999 75c-40 46.667 -60 111 -60 193c0 91.333 19.333 162.333 58 213c43.333 56.667 109.333 85 198 85c62.667 0 114.334 -16 155.001 -48
c42 -34 67.333 -81.667 76 -143h-140c-12 48 -42.333 72 -91 72c-58.667 0 -94.334 -34.667 -107.001 -104h132v-92h-133c0 -88 34.667 -132 104 -132c31.333 0 56.666 12 75.999 36c15.333 19.333 23 37.666 23 54.999h141z" />
    <glyph glyph-name="ordmasculine" unicode="&#x454;" 
d="M527 196c-6 -66 -31.5 -117.499 -76.5 -154.499s-101.167 -55.5 -168.5 -55.5c-81.333 0 -143.666 25 -186.999 75c-40 46.667 -60 111 -60 193c0 91.333 19.333 162.333 58 213c43.333 56.667 109.333 85 198 85c62.667 0 114.334 -16 155.001 -48
c42 -34 67.333 -81.667 76 -143h-140c-12 48 -42.333 72 -91 72c-58.667 0 -94.334 -34.667 -107.001 -104h132v-92h-133c0 -88 34.667 -132 104 -132c31.333 0 56.666 12 75.999 36c15.333 19.333 23 37.666 23 54.999h141z" />
    <glyph glyph-name="guillemotright" unicode="&#xbb;" 
d="M405 283l-101 89v117l169 -145v-122l-169 -145v117zM190 283l-101 89v117l169 -145v-122l-169 -145v117z" />
    <glyph glyph-name="onequarter" unicode="&#xbc;" horiz-adv-x="261" 
d="M60 538h141v-594c0 -66.667 -16.667 -111 -50 -133c-27.333 -18 -80 -27 -158 -27v113c25.333 0 42 2.33301 50 7c11.333 6 17 20.333 17 43v591zM201 732v-131h-141v131h141z" />
    <glyph glyph-name="onequarter" unicode="&#x458;" horiz-adv-x="261" 
d="M60 538h141v-594c0 -66.667 -16.667 -111 -50 -133c-27.333 -18 -80 -27 -158 -27v113c25.333 0 42 2.33301 50 7c11.333 6 17 20.333 17 43v591zM201 732v-131h-141v131h141z" />
    <glyph glyph-name="onehalf" unicode="&#xbd;" horiz-adv-x="673" 
d="M39 224h145.002c0 -40.667 16 -71.334 48 -92.001c27.333 -17.333 62.666 -26 105.999 -26c101.333 0 152 31.333 152 94c0 28 -16 49.667 -48 65c-13.333 6 -41.333 14.333 -84 25l-146 36c-108 26.667 -162 92 -162 196c0 55.333 17 102.333 51 141
c48 54.667 124 82 228 82c99.333 0 174 -28 224 -84c38.667 -43.333 58 -93.666 58 -150.999h-145c-8.66699 73.333 -58 110 -148 110c-33.333 0 -61.333 -6 -84 -18c-28.667 -15.333 -43 -38.333 -43 -69c0 -25.333 9 -44.333 27 -57c10 -6.66699 26.667 -13 50 -19
l177 -43c58.667 -14 102.667 -33.333 132 -58c38.667 -32 58 -77.667 58 -137c0 -94 -39.667 -161 -119 -201c-48.667 -24.667 -104.334 -37 -167.001 -37c-89.333 0 -161 18 -215 54c-63.333 42 -95 105 -95 189z" />
    <glyph glyph-name="onehalf" unicode="&#x405;" horiz-adv-x="673" 
d="M39 224h145.002c0 -40.667 16 -71.334 48 -92.001c27.333 -17.333 62.666 -26 105.999 -26c101.333 0 152 31.333 152 94c0 28 -16 49.667 -48 65c-13.333 6 -41.333 14.333 -84 25l-146 36c-108 26.667 -162 92 -162 196c0 55.333 17 102.333 51 141
c48 54.667 124 82 228 82c99.333 0 174 -28 224 -84c38.667 -43.333 58 -93.666 58 -150.999h-145c-8.66699 73.333 -58 110 -148 110c-33.333 0 -61.333 -6 -84 -18c-28.667 -15.333 -43 -38.333 -43 -69c0 -25.333 9 -44.333 27 -57c10 -6.66699 26.667 -13 50 -19
l177 -43c58.667 -14 102.667 -33.333 132 -58c38.667 -32 58 -77.667 58 -137c0 -94 -39.667 -161 -119 -201c-48.667 -24.667 -104.334 -37 -167.001 -37c-89.333 0 -161 18 -215 54c-63.333 42 -95 105 -95 189z" />
    <glyph glyph-name="threequarters" unicode="&#xbe;" horiz-adv-x="563" 
d="M512 374l-137.999 -0.000976562c-4 22.667 -10.667 38.667 -20 48c-15.333 15.333 -40.333 23 -75 23c-58 0 -87 -17.667 -87 -53c0 -21.333 29 -38.333 87 -51c86 -18.667 139.667 -33 161 -43c58.667 -27.333 88 -69.666 88 -126.999c0 -68.667 -28.667 -119 -86 -151
c-40.667 -22.667 -90.334 -34 -149.001 -34c-71.333 0 -129.333 12.667 -174 38c-56 32 -84 81.333 -84 148h145c0 -52.667 39 -79 117 -79c22.667 0 42 3.66699 58 11c21.333 10 32 25 32 45c0 22.667 -28.667 40.334 -86 53.001c-86 18.667 -139.333 33 -160 43
c-58 27.333 -87 69.666 -87 126.999c0 59.333 21.667 105 65 137c39.333 28.667 90 43 152 43c160.667 0 241 -59.333 241 -178z" />
    <glyph glyph-name="threequarters" unicode="&#x455;" horiz-adv-x="563" 
d="M512 374l-137.999 -0.000976562c-4 22.667 -10.667 38.667 -20 48c-15.333 15.333 -40.333 23 -75 23c-58 0 -87 -17.667 -87 -53c0 -21.333 29 -38.333 87 -51c86 -18.667 139.667 -33 161 -43c58.667 -27.333 88 -69.666 88 -126.999c0 -68.667 -28.667 -119 -86 -151
c-40.667 -22.667 -90.334 -34 -149.001 -34c-71.333 0 -129.333 12.667 -174 38c-56 32 -84 81.333 -84 148h145c0 -52.667 39 -79 117 -79c22.667 0 42 3.66699 58 11c21.333 10 32 25 32 45c0 22.667 -28.667 40.334 -86 53.001c-86 18.667 -139.333 33 -160 43
c-58 27.333 -87 69.666 -87 126.999c0 59.333 21.667 105 65 137c39.333 28.667 90 43 152 43c160.667 0 241 -59.333 241 -178z" />
    <glyph glyph-name="questiondown" unicode="&#xbf;" horiz-adv-x="261" 
d="M201 538v-538h-141v538h141zM96 736v-116h-127v116h127zM293 736v-116h-127v116h127z" />
    <glyph glyph-name="questiondown" unicode="&#x457;" horiz-adv-x="261" 
d="M201 538v-538h-141v538h141zM96 736v-116h-127v116h127zM293 736v-116h-127v116h127z" />
    <glyph glyph-name="Agrave" unicode="&#xc0;" horiz-adv-x="730" 
d="M279 726h175l255 -726h-164l-47 150h-267l-51 -150h-159zM271 275h194l-99 287z" />
    <glyph glyph-name="Agrave" unicode="&#x410;" horiz-adv-x="730" 
d="M279 726h175l255 -726h-164l-47 150h-267l-51 -150h-159zM271 275h194l-99 287z" />
    <glyph glyph-name="Aacute" unicode="&#xc1;" horiz-adv-x="703" 
d="M70 726l534 -0.000976562v-125h-383v-150h189c72 0 130.667 -20 176 -60c48 -41.333 72 -97.666 72 -168.999c0 -72 -24 -127.667 -72 -167c-44.667 -36.667 -104 -55 -178 -55h-338v726zM221 325.999v-200.999h171c33.333 0 60.833 9.16699 82.5 27.5
s32.5 44.166 32.5 77.499c0 64 -38.333 96 -115 96h-171z" />
    <glyph glyph-name="Aacute" unicode="&#x411;" horiz-adv-x="703" 
d="M70 726l534 -0.000976562v-125h-383v-150h189c72 0 130.667 -20 176 -60c48 -41.333 72 -97.666 72 -168.999c0 -72 -24 -127.667 -72 -167c-44.667 -36.667 -104 -55 -178 -55h-338v726zM221 325.999v-200.999h171c33.333 0 60.833 9.16699 82.5 27.5
s32.5 44.166 32.5 77.499c0 64 -38.333 96 -115 96h-171z" />
    <glyph glyph-name="Acircumflex" unicode="&#xc2;" horiz-adv-x="718" 
d="M70 0l0.000976562 726h358c63.333 0 115 -14.667 155 -44c44.667 -33.333 67 -80.333 67 -141c0 -70 -29.333 -120 -88 -150c74 -27.333 111 -85.333 111 -174c0 -76.667 -30.333 -133.667 -91 -171c-50.667 -30.667 -117.334 -46 -200.001 -46h-312zM221.001 320v-195
h184c78 0 117 35.667 117 107c0 28.667 -11.333 51 -34 67c-20 14 -45 21 -75 21h-192zM221.001 601v-159h177c71.333 0 107 27 107 81c0 52 -37 78 -111 78h-173z" />
    <glyph glyph-name="Acircumflex" unicode="&#x412;" horiz-adv-x="718" 
d="M70 0l0.000976562 726h358c63.333 0 115 -14.667 155 -44c44.667 -33.333 67 -80.333 67 -141c0 -70 -29.333 -120 -88 -150c74 -27.333 111 -85.333 111 -174c0 -76.667 -30.333 -133.667 -91 -171c-50.667 -30.667 -117.334 -46 -200.001 -46h-312zM221.001 320v-195
h184c78 0 117 35.667 117 107c0 28.667 -11.333 51 -34 67c-20 14 -45 21 -75 21h-192zM221.001 601v-159h177c71.333 0 107 27 107 81c0 52 -37 78 -111 78h-173z" />
    <glyph glyph-name="Atilde" unicode="&#xc3;" horiz-adv-x="613" 
d="M70 726h517v-125h-366v-601h-151v726z" />
    <glyph glyph-name="Atilde" unicode="&#x413;" horiz-adv-x="613" 
d="M70 726h517v-125h-366v-601h-151v726z" />
    <glyph glyph-name="Adieresis" unicode="&#xc4;" horiz-adv-x="761" 
d="M173 726l491.001 -0.000976562v-601h71v-278h-141v153h-427v-153h-141v278h65c35.333 54 58.666 115.667 69.999 185c8 46.667 12 113.334 12 200.001v216zM241.001 124.999h272v476h-198v-101c0 -88.667 -3 -153.334 -9 -194.001
c-10 -65.333 -31.667 -125.666 -65 -180.999z" />
    <glyph glyph-name="Adieresis" unicode="&#x414;" horiz-adv-x="761" 
d="M173 726l491.001 -0.000976562v-601h71v-278h-141v153h-427v-153h-141v278h65c35.333 54 58.666 115.667 69.999 185c8 46.667 12 113.334 12 200.001v216zM241.001 124.999h272v476h-198v-101c0 -88.667 -3 -153.334 -9 -194.001
c-10 -65.333 -31.667 -125.666 -65 -180.999z" />
    <glyph glyph-name="Aring" unicode="&#xc5;" horiz-adv-x="667" 
d="M70 726h536v-125h-385v-150h353v-125h-353v-201h401v-125h-552v726z" />
    <glyph glyph-name="Aring" unicode="&#x415;" horiz-adv-x="667" 
d="M70 726h536v-125h-385v-150h353v-125h-353v-201h401v-125h-552v726z" />
    <glyph glyph-name="AE" unicode="&#xc6;" horiz-adv-x="1039" 
d="M34 726h184l225 -299v299h151v-297l226 297h184l-247 -305l266 -421h-184l-186 321l-59 -77v-244h-151v244l-58 77l-186 -321h-184l266 421z" />
    <glyph glyph-name="AE" unicode="&#x416;" horiz-adv-x="1039" 
d="M34 726h184l225 -299v299h151v-297l226 297h184l-247 -305l266 -421h-184l-186 321l-59 -77v-244h-151v244l-58 77l-186 -321h-184l266 421z" />
    <glyph glyph-name="Ccedilla" unicode="&#xc7;" horiz-adv-x="673" 
d="M279 320l0.000976562 122h66c33.333 0 60.333 7.33301 81 22c23.333 16 35 40 35 72c0 56 -43 84 -129 84c-89.333 0 -137.333 -36.667 -144 -110h-142c0 74 29.333 132.667 88 176c52.667 39.333 117.667 59 195 59c69.333 0 130 -14.333 182 -43
c63.333 -35.333 95 -85 95 -149c0 -87.333 -41.667 -143.333 -125 -168c47.333 -8 84.5 -29.5 111.5 -64.5s40.5 -77.167 40.5 -126.5c0 -73.333 -32.333 -129 -97 -167c-52.667 -30.667 -118.334 -46 -197.001 -46c-202.667 0 -304 81 -304 243h142
c0 -78.667 52.333 -118 157 -118c39.333 0 72.333 7.33301 99 22c32.667 18.667 49 46 49 82s-13.667 63.667 -41 83c-24 18 -54.667 27 -92 27h-70z" />
    <glyph glyph-name="Ccedilla" unicode="&#x417;" horiz-adv-x="673" 
d="M279 320l0.000976562 122h66c33.333 0 60.333 7.33301 81 22c23.333 16 35 40 35 72c0 56 -43 84 -129 84c-89.333 0 -137.333 -36.667 -144 -110h-142c0 74 29.333 132.667 88 176c52.667 39.333 117.667 59 195 59c69.333 0 130 -14.333 182 -43
c63.333 -35.333 95 -85 95 -149c0 -87.333 -41.667 -143.333 -125 -168c47.333 -8 84.5 -29.5 111.5 -64.5s40.5 -77.167 40.5 -126.5c0 -73.333 -32.333 -129 -97 -167c-52.667 -30.667 -118.334 -46 -197.001 -46c-202.667 0 -304 81 -304 243h142
c0 -78.667 52.333 -118 157 -118c39.333 0 72.333 7.33301 99 22c32.667 18.667 49 46 49 82s-13.667 63.667 -41 83c-24 18 -54.667 27 -92 27h-70z" />
    <glyph glyph-name="Egrave" unicode="&#xc8;" horiz-adv-x="751" 
d="M221 726v-506l290 506h170v-726h-151v517l-298 -517h-162v726h151z" />
    <glyph glyph-name="Egrave" unicode="&#x418;" horiz-adv-x="751" 
d="M221 726v-506l290 506h170v-726h-151v517l-298 -517h-162v726h151z" />
    <glyph glyph-name="Eacute" unicode="&#xc9;" horiz-adv-x="751" 
d="M221 726v-506l290 506h170v-726h-151v517l-298 -517h-162v726h151zM277 937c4 -20.667 10.334 -35.667 19.001 -45c15.333 -16.667 41.666 -25 78.999 -25c36.667 0 63 8.33301 79 25c8.66699 9.33301 15 24.333 19 45h67c0 -44.667 -16.667 -81 -50 -109
c-30.667 -25.333 -69 -38 -115 -38c-58.667 0 -103 19.333 -133 58c-21.333 28 -32 57.667 -32 89h67z" />
    <glyph glyph-name="Eacute" unicode="&#x419;" horiz-adv-x="751" 
d="M221 726v-506l290 506h170v-726h-151v517l-298 -517h-162v726h151zM277 937c4 -20.667 10.334 -35.667 19.001 -45c15.333 -16.667 41.666 -25 78.999 -25c36.667 0 63 8.33301 79 25c8.66699 9.33301 15 24.333 19 45h67c0 -44.667 -16.667 -81 -50 -109
c-30.667 -25.333 -69 -38 -115 -38c-58.667 0 -103 19.333 -133 58c-21.333 28 -32 57.667 -32 89h67z" />
    <glyph glyph-name="Ecircumflex" unicode="&#xca;" horiz-adv-x="716" 
d="M221 726v-295l277 295h196l-296 -297l313 -429h-195l-224 319l-71 -73v-246h-151v726h151z" />
    <glyph glyph-name="Ecircumflex" unicode="&#x41a;" horiz-adv-x="716" 
d="M221 726v-295l277 295h196l-296 -297l313 -429h-195l-224 319l-71 -73v-246h-151v726h151z" />
    <glyph glyph-name="Edieresis" unicode="&#xcb;" horiz-adv-x="721" 
d="M144 726h507.001v-726h-151v601h-205v-310c0 -88.667 -10 -156.667 -30 -204c-30 -70.667 -83 -106 -159 -106c-37.333 0 -68 3.66699 -92 11v116c12 -4 27 -6 45 -6c41.333 0 67.666 26 78.999 78c4 20 6 62.333 6 127v419z" />
    <glyph glyph-name="Edieresis" unicode="&#x41b;" horiz-adv-x="721" 
d="M144 726h507.001v-726h-151v601h-205v-310c0 -88.667 -10 -156.667 -30 -204c-30 -70.667 -83 -106 -159 -106c-37.333 0 -68 3.66699 -92 11v116c12 -4 27 -6 45 -6c41.333 0 67.666 26 78.999 78c4 20 6 62.333 6 127v419z" />
    <glyph glyph-name="Igrave" unicode="&#xcc;" horiz-adv-x="842" 
d="M70 726h221l131 -572l131 572h219v-726h-141v607l-137 -607h-149l-132 607l-2 -607h-141v726z" />
    <glyph glyph-name="Igrave" unicode="&#x41c;" horiz-adv-x="842" 
d="M70 726h221l131 -572l131 572h219v-726h-141v607l-137 -607h-149l-132 607l-2 -607h-141v726z" />
    <glyph glyph-name="Iacute" unicode="&#xcd;" horiz-adv-x="725" 
d="M221 726v-275h283v275h151v-726h-151v326h-283v-326h-151v726h151z" />
    <glyph glyph-name="Iacute" unicode="&#x41d;" horiz-adv-x="725" 
d="M221 726v-275h283v275h151v-726h-151v326h-283v-326h-151v726h151z" />
    <glyph glyph-name="Icircumflex" unicode="&#xce;" horiz-adv-x="786" 
d="M45 363c0 186.667 71.333 306 214 358c44 16 88.667 24 134 24c55.333 0 107 -10.667 155 -32c50.667 -23.333 91.667 -56.333 123 -99c46.667 -64.667 70 -148.334 70 -251.001c0 -186.667 -71.333 -306 -214 -358c-44 -16 -88.667 -24 -134 -24
c-55.333 0 -107 10.667 -155 32c-50.667 23.333 -91.667 56.333 -123 99c-46.667 64.667 -70 148.334 -70 251.001zM196 363c0 -72 14.667 -130.333 44 -175c34.667 -52.667 85.667 -79 153 -79s118.333 26.333 153 79c29.333 44.667 44 103 44 175s-14.667 130.333 -44 175
c-34.667 52.667 -85.667 79 -153 79s-118.333 -26.333 -153 -79c-29.333 -44.667 -44 -103 -44 -175z" />
    <glyph glyph-name="Icircumflex" unicode="&#x41e;" horiz-adv-x="786" 
d="M45 363c0 186.667 71.333 306 214 358c44 16 88.667 24 134 24c55.333 0 107 -10.667 155 -32c50.667 -23.333 91.667 -56.333 123 -99c46.667 -64.667 70 -148.334 70 -251.001c0 -186.667 -71.333 -306 -214 -358c-44 -16 -88.667 -24 -134 -24
c-55.333 0 -107 10.667 -155 32c-50.667 23.333 -91.667 56.333 -123 99c-46.667 64.667 -70 148.334 -70 251.001zM196 363c0 -72 14.667 -130.333 44 -175c34.667 -52.667 85.667 -79 153 -79s118.333 26.333 153 79c29.333 44.667 44 103 44 175s-14.667 130.333 -44 175
c-34.667 52.667 -85.667 79 -153 79s-118.333 -26.333 -153 -79c-29.333 -44.667 -44 -103 -44 -175z" />
    <glyph glyph-name="Idieresis" unicode="&#xcf;" horiz-adv-x="725" 
d="M70 726h585v-726h-151v601h-283v-601h-151v726z" />
    <glyph glyph-name="Idieresis" unicode="&#x41f;" horiz-adv-x="725" 
d="M70 726h585v-726h-151v601h-283v-601h-151v726z" />
    <glyph glyph-name="Eth" unicode="&#xd0;" horiz-adv-x="671" 
d="M221 262v-262h-151v726h332c70.667 0 125.667 -20.833 165 -62.5s59 -98.167 59 -169.5c0 -51.333 -14 -98 -42 -140c-41.333 -61.333 -104.333 -92 -189 -92h-174zM221 601v-214h141c75.333 0 113 37.667 113 113c0 67.333 -44.333 101 -133 101h-121z" />
    <glyph glyph-name="Eth" unicode="&#x420;" horiz-adv-x="671" 
d="M221 262v-262h-151v726h332c70.667 0 125.667 -20.833 165 -62.5s59 -98.167 59 -169.5c0 -51.333 -14 -98 -42 -140c-41.333 -61.333 -104.333 -92 -189 -92h-174zM221 601v-214h141c75.333 0 113 37.667 113 113c0 67.333 -44.333 101 -133 101h-121z" />
    <glyph glyph-name="Ntilde" unicode="&#xd1;" horiz-adv-x="730" 
d="M691 488l-150.999 -0.000976562c-10 36 -22.667 63 -38 81c-27.333 32 -68.333 48 -123 48c-64 0 -112 -28.333 -144 -85c-26 -45.333 -39 -102.666 -39 -171.999c0 -68 13.333 -124.333 40 -169c32 -54.667 79.667 -82 143 -82c88 0 141.667 46.667 161 140h151
c-16 -84.667 -51 -150.5 -105 -197.5s-124 -70.5 -210 -70.5c-109.333 0 -193 37 -251 111c-53.333 67.333 -80 157.333 -80 270c0 111.333 27 201.333 81 270c59.333 75.333 143.333 113 252 113c99.333 0 178.666 -29.333 237.999 -88c50 -50 75 -106.333 75 -169z" />
    <glyph glyph-name="Ntilde" unicode="&#x421;" horiz-adv-x="730" 
d="M691 488l-150.999 -0.000976562c-10 36 -22.667 63 -38 81c-27.333 32 -68.333 48 -123 48c-64 0 -112 -28.333 -144 -85c-26 -45.333 -39 -102.666 -39 -171.999c0 -68 13.333 -124.333 40 -169c32 -54.667 79.667 -82 143 -82c88 0 141.667 46.667 161 140h151
c-16 -84.667 -51 -150.5 -105 -197.5s-124 -70.5 -210 -70.5c-109.333 0 -193 37 -251 111c-53.333 67.333 -80 157.333 -80 270c0 111.333 27 201.333 81 270c59.333 75.333 143.333 113 252 113c99.333 0 178.666 -29.333 237.999 -88c50 -50 75 -106.333 75 -169z" />
    <glyph glyph-name="Ograve" unicode="&#xd2;" horiz-adv-x="617" 
d="M384 601v-601h-151v601h-219v125h589v-125h-219z" />
    <glyph glyph-name="Ograve" unicode="&#x422;" horiz-adv-x="617" 
d="M384 601v-601h-151v601h-219v125h589v-125h-219z" />
    <glyph glyph-name="Oacute" unicode="&#xd3;" horiz-adv-x="708" 
d="M9 726l171.001 -0.000976562l196 -406l151 406h171l-267 -614c-19.333 -45.333 -40.666 -77.666 -63.999 -96.999c-26.667 -22.667 -62.334 -34 -107.001 -34c-38 0 -69 3 -93 9v129c17.333 -8 37 -12 59 -12c21.333 0 37.666 4.66699 48.999 14
c8 6.66699 17.667 21 29 43z" />
    <glyph glyph-name="Oacute" unicode="&#x423;" horiz-adv-x="708" 
d="M9 726l171.001 -0.000976562l196 -406l151 406h171l-267 -614c-19.333 -45.333 -40.666 -77.666 -63.999 -96.999c-26.667 -22.667 -62.334 -34 -107.001 -34c-38 0 -69 3 -93 9v129c17.333 -8 37 -12 59 -12c21.333 0 37.666 4.66699 48.999 14
c8 6.66699 17.667 21 29 43z" />
    <glyph glyph-name="Ocircumflex" unicode="&#xd4;" horiz-adv-x="903" 
d="M527 726l-0.000976562 -74c82 0 153.333 -20.333 214 -61c78 -52 117 -128 117 -228c0 -98.667 -39 -173.667 -117 -225c-61.333 -40 -132.666 -60 -213.999 -60v-78h-151v78c-82.667 0 -154 19.667 -214 59c-78 50.667 -117 126 -117 226c0 99.333 39 175 117 227
c62 41.333 133.333 62 214 62v74h151zM195.999 363c0 -54.667 16.668 -96 50.001 -124c31.333 -26 74.666 -39 129.999 -39v330c-56 0 -99.333 -13.667 -130 -41c-33.333 -28.667 -50 -70.667 -50 -126zM707 363c0 55.333 -16.168 97 -48.501 125s-76.166 42 -131.499 42
v-330c120 0 180 54.333 180 163z" />
    <glyph glyph-name="Ocircumflex" unicode="&#x424;" horiz-adv-x="903" 
d="M527 726l-0.000976562 -74c82 0 153.333 -20.333 214 -61c78 -52 117 -128 117 -228c0 -98.667 -39 -173.667 -117 -225c-61.333 -40 -132.666 -60 -213.999 -60v-78h-151v78c-82.667 0 -154 19.667 -214 59c-78 50.667 -117 126 -117 226c0 99.333 39 175 117 227
c62 41.333 133.333 62 214 62v74h151zM195.999 363c0 -54.667 16.668 -96 50.001 -124c31.333 -26 74.666 -39 129.999 -39v330c-56 0 -99.333 -13.667 -130 -41c-33.333 -28.667 -50 -70.667 -50 -126zM707 363c0 55.333 -16.168 97 -48.501 125s-76.166 42 -131.499 42
v-330c120 0 180 54.333 180 163z" />
    <glyph glyph-name="Otilde" unicode="&#xd5;" horiz-adv-x="673" 
d="M423 377l236 -377h-185l-137 248l-146 -248h-177l234 371l-221 355h181l129 -235l132 235h175z" />
    <glyph glyph-name="Otilde" unicode="&#x425;" horiz-adv-x="673" 
d="M423 377l236 -377h-185l-137 248l-146 -248h-177l234 371l-221 355h181l129 -235l132 235h175z" />
    <glyph glyph-name="Odieresis" unicode="&#xd6;" horiz-adv-x="748" 
d="M221 726v-601h283v601h151v-601h72v-279h-141v154h-516v726h151z" />
    <glyph glyph-name="Odieresis" unicode="&#x426;" horiz-adv-x="748" 
d="M221 726v-601h283v601h151v-601h72v-279h-141v154h-516v726h151z" />
    <glyph glyph-name="multiply" unicode="&#xd7;" horiz-adv-x="705" 
d="M71 726h150.999v-213c0 -64.667 37.333 -97 112 -97c46 0 96 3.66699 150 11v299h151v-726h-151v303c-48 -8 -111.667 -12 -191 -12c-71.333 0 -126.166 19.5 -164.499 58.5s-57.5 94.5 -57.5 166.5v210z" />
    <glyph glyph-name="multiply" unicode="&#x427;" horiz-adv-x="705" 
d="M71 726h150.999v-213c0 -64.667 37.333 -97 112 -97c46 0 96 3.66699 150 11v299h151v-726h-151v303c-48 -8 -111.667 -12 -191 -12c-71.333 0 -126.166 19.5 -164.499 58.5s-57.5 94.5 -57.5 166.5v210z" />
    <glyph glyph-name="Oslash" unicode="&#xd8;" horiz-adv-x="973" 
d="M221 726v-601h190v601h151v-601h190v601h151v-726h-833v726h151z" />
    <glyph glyph-name="Oslash" unicode="&#x428;" horiz-adv-x="973" 
d="M221 726v-601h190v601h151v-601h190v601h151v-726h-833v726h151z" />
    <glyph glyph-name="Ugrave" unicode="&#xd9;" horiz-adv-x="996" 
d="M221 726v-601h190v601h151v-601h190v601h151v-601h72v-279h-141v154h-764v726h151z" />
    <glyph glyph-name="Ugrave" unicode="&#x429;" horiz-adv-x="996" 
d="M221 726v-601h190v601h151v-601h190v601h151v-601h72v-279h-141v154h-764v726h151z" />
    <glyph glyph-name="Uacute" unicode="&#xda;" horiz-adv-x="801" 
d="M7 726l312 -0.000976562v-275h189c72 0 130.667 -20 176 -60c48 -41.333 72 -97.666 72 -168.999c0 -72 -24 -127.667 -72 -167c-44.667 -36.667 -104 -55 -178 -55h-338v601h-161v125zM319 325.999v-200.999h171c33.333 0 60.833 9.16699 82.5 27.5
s32.5 44.166 32.5 77.499c0 64 -38.333 96 -115 96h-171z" />
    <glyph glyph-name="Uacute" unicode="&#x42a;" horiz-adv-x="801" 
d="M7 726l312 -0.000976562v-275h189c72 0 130.667 -20 176 -60c48 -41.333 72 -97.666 72 -168.999c0 -72 -24 -127.667 -72 -167c-44.667 -36.667 -104 -55 -178 -55h-338v601h-161v125zM319 325.999v-200.999h171c33.333 0 60.833 9.16699 82.5 27.5
s32.5 44.166 32.5 77.499c0 64 -38.333 96 -115 96h-171z" />
    <glyph glyph-name="Ucircumflex" unicode="&#xdb;" horiz-adv-x="1006" 
d="M221 726v-275.001h189c72 0 130.667 -20 176 -60c48 -41.333 72 -97.666 72 -168.999c0 -72 -24 -127.667 -72 -167c-44.667 -36.667 -104 -55 -178 -55h-338v726h151zM221 325.999v-200.999h171c33.333 0 60.833 9.16699 82.5 27.5s32.5 44.166 32.5 77.499
c0 64 -38.333 96 -115 96h-171zM936 726v-726h-151v726h151z" />
    <glyph glyph-name="Ucircumflex" unicode="&#x42b;" horiz-adv-x="1006" 
d="M221 726v-275.001h189c72 0 130.667 -20 176 -60c48 -41.333 72 -97.666 72 -168.999c0 -72 -24 -127.667 -72 -167c-44.667 -36.667 -104 -55 -178 -55h-338v726h151zM221 325.999v-200.999h171c33.333 0 60.833 9.16699 82.5 27.5s32.5 44.166 32.5 77.499
c0 64 -38.333 96 -115 96h-171zM936 726v-726h-151v726h151z" />
    <glyph glyph-name="Udieresis" unicode="&#xdc;" horiz-adv-x="703" 
d="M221 726v-275.001h189c72 0 130.667 -20 176 -60c48 -41.333 72 -97.666 72 -168.999c0 -72 -24 -127.667 -72 -167c-44.667 -36.667 -104 -55 -178 -55h-338v726h151zM221 325.999v-200.999h171c33.333 0 60.833 9.16699 82.5 27.5s32.5 44.166 32.5 77.499
c0 64 -38.333 96 -115 96h-171z" />
    <glyph glyph-name="Udieresis" unicode="&#x42c;" horiz-adv-x="703" 
d="M221 726v-275.001h189c72 0 130.667 -20 176 -60c48 -41.333 72 -97.666 72 -168.999c0 -72 -24 -127.667 -72 -167c-44.667 -36.667 -104 -55 -178 -55h-338v726h151zM221 325.999v-200.999h171c33.333 0 60.833 9.16699 82.5 27.5s32.5 44.166 32.5 77.499
c0 64 -38.333 96 -115 96h-171z" />
    <glyph glyph-name="Yacute" unicode="&#xdd;" horiz-adv-x="734" 
d="M321 445l204.003 -0.000976562c-10 49.333 -28.333 89 -55 119c-30.667 35.333 -69.334 53 -116.001 53c-54 0 -95 -16 -123 -48c-16.667 -19.333 -29.667 -46.333 -39 -81h-151c0 62 25 118 75 168c59.333 59.333 138.666 89 237.999 89c108.667 0 193 -37.333 253 -112
c54.667 -69.333 82 -159.666 82 -270.999c0 -112 -27 -202 -81 -270c-59.333 -74 -143.333 -111 -252 -111c-86 0 -155.833 23.333 -209.5 70s-88.834 112.667 -105.501 198h151c8.66699 -42.667 27 -76.667 55 -102s63.333 -38 106 -38c56 0 99.667 22 131 66
c25.333 36.667 41 85 47 145h-210v125z" />
    <glyph glyph-name="Yacute" unicode="&#x42d;" horiz-adv-x="734" 
d="M321 445l204.003 -0.000976562c-10 49.333 -28.333 89 -55 119c-30.667 35.333 -69.334 53 -116.001 53c-54 0 -95 -16 -123 -48c-16.667 -19.333 -29.667 -46.333 -39 -81h-151c0 62 25 118 75 168c59.333 59.333 138.666 89 237.999 89c108.667 0 193 -37.333 253 -112
c54.667 -69.333 82 -159.666 82 -270.999c0 -112 -27 -202 -81 -270c-59.333 -74 -143.333 -111 -252 -111c-86 0 -155.833 23.333 -209.5 70s-88.834 112.667 -105.501 198h151c8.66699 -42.667 27 -76.667 55 -102s63.333 -38 106 -38c56 0 99.667 22 131 66
c25.333 36.667 41 85 47 145h-210v125z" />
    <glyph glyph-name="Thorn" unicode="&#xde;" horiz-adv-x="1008" 
d="M221 726l0.000976562 -275.001h104c19.333 142 89.333 233.667 210 275c36.667 12.667 73 19 109 19c111.333 0 196.333 -43.667 255 -131c42.667 -63.333 64 -147 64 -251c0 -186 -66 -305.333 -198 -358c-40 -16 -80.333 -24 -121 -24c-50 0 -97 10 -141 30
c-46.667 20.667 -84.334 50.334 -113.001 89.001c-43.333 58 -65 133.333 -65 226h-104v-326h-151v726h151zM476.001 363.999c0 -65.333 11.665 -121.001 34.998 -167.001c30 -58.667 74.333 -88 133 -88c60 0 104.667 29 134 87c22.667 45.333 34 101 34 167
c0 65.333 -11.667 121 -35 167c-29.333 58 -73.666 87 -132.999 87s-103.666 -29 -132.999 -87c-23.333 -45.333 -35 -100.666 -35 -165.999z" />
    <glyph glyph-name="Thorn" unicode="&#x42e;" horiz-adv-x="1008" 
d="M221 726l0.000976562 -275.001h104c19.333 142 89.333 233.667 210 275c36.667 12.667 73 19 109 19c111.333 0 196.333 -43.667 255 -131c42.667 -63.333 64 -147 64 -251c0 -186 -66 -305.333 -198 -358c-40 -16 -80.333 -24 -121 -24c-50 0 -97 10 -141 30
c-46.667 20.667 -84.334 50.334 -113.001 89.001c-43.333 58 -65 133.333 -65 226h-104v-326h-151v726h151zM476.001 363.999c0 -65.333 11.665 -121.001 34.998 -167.001c30 -58.667 74.333 -88 133 -88c60 0 104.667 29 134 87c22.667 45.333 34 101 34 167
c0 65.333 -11.667 121 -35 167c-29.333 58 -73.666 87 -132.999 87s-103.666 -29 -132.999 -87c-23.333 -45.333 -35 -100.666 -35 -165.999z" />
    <glyph glyph-name="germandbls" unicode="&#xdf;" horiz-adv-x="715" 
d="M494 284l-112.001 -0.000976562l-168 -284h-177l177 298c-50 16 -89.333 41.333 -118 76c-30.667 36.667 -46 80.334 -46 131.001c0 64.667 21.833 117.667 65.5 159s97.834 62 162.501 62h367v-726h-151v284zM493.999 408.999v192h-187c-29.333 0 -54 -7.66699 -74 -23
c-21.333 -17.333 -32 -40 -32 -68c0 -67.333 39.333 -101 118 -101h175z" />
    <glyph glyph-name="germandbls" unicode="&#x42f;" horiz-adv-x="715" 
d="M494 284l-112.001 -0.000976562l-168 -284h-177l177 298c-50 16 -89.333 41.333 -118 76c-30.667 36.667 -46 80.334 -46 131.001c0 64.667 21.833 117.667 65.5 159s97.834 62 162.501 62h367v-726h-151v284zM493.999 408.999v192h-187c-29.333 0 -54 -7.66699 -74 -23
c-21.333 -17.333 -32 -40 -32 -68c0 -67.333 39.333 -101 118 -101h175z" />
    <glyph glyph-name="agrave" unicode="&#xe0;" horiz-adv-x="567" 
d="M188 364l-136 0.000976562c6.66699 70.667 31.667 120.667 75 150c36.667 25.333 91.667 38 165 38c60 0 108.667 -11 146 -33c45.333 -26.667 68 -67.667 68 -123v-291c0 -48.667 10.333 -76.334 31 -83.001v-22h-152c-6 18 -10.333 39.333 -13 64
c-50.667 -52 -108.667 -78 -174 -78c-49.333 0 -88.833 13.833 -118.5 41.5s-44.5 66.167 -44.5 115.5c0 62.667 27.333 110.667 82 144c46 28 102.333 42 169 42c54.667 0 82 15.667 82 47c0 42 -31 63 -93 63c-51.333 0 -80.333 -25 -87 -75zM368 262.001
c-16.667 -12.667 -49.334 -22.666 -98.001 -29.999c-30 -4.66699 -52 -11.667 -66 -21c-18.667 -12.667 -28 -32.334 -28 -59.001c0 -43.333 22 -65 66 -65c32.667 0 61.834 9.66699 87.501 29s38.5 45 38.5 77v69z" />
    <glyph glyph-name="agrave" unicode="&#x430;" horiz-adv-x="567" 
d="M188 364l-136 0.000976562c6.66699 70.667 31.667 120.667 75 150c36.667 25.333 91.667 38 165 38c60 0 108.667 -11 146 -33c45.333 -26.667 68 -67.667 68 -123v-291c0 -48.667 10.333 -76.334 31 -83.001v-22h-152c-6 18 -10.333 39.333 -13 64
c-50.667 -52 -108.667 -78 -174 -78c-49.333 0 -88.833 13.833 -118.5 41.5s-44.5 66.167 -44.5 115.5c0 62.667 27.333 110.667 82 144c46 28 102.333 42 169 42c54.667 0 82 15.667 82 47c0 42 -31 63 -93 63c-51.333 0 -80.333 -25 -87 -75zM368 262.001
c-16.667 -12.667 -49.334 -22.666 -98.001 -29.999c-30 -4.66699 -52 -11.667 -66 -21c-18.667 -12.667 -28 -32.334 -28 -59.001c0 -43.333 22 -65 66 -65c32.667 0 61.834 9.66699 87.501 29s38.5 45 38.5 77v69z" />
    <glyph glyph-name="aacute" unicode="&#xe1;" horiz-adv-x="601" 
d="M143 405c16.667 34 40.165 61.334 70.498 82.001s63.833 31 100.5 31c78.667 0 140.334 -21.667 185.001 -65s67 -104.666 67 -183.999c0 -86.667 -22.333 -155 -67 -205c-46.667 -52 -113 -78 -199 -78c-88 0 -155 28.667 -201 86c-42.667 52 -64 123.333 -64 214
c0 114.667 15.333 202 46 262c36.667 72 100.334 118.667 191.001 140l109 25c27.333 7.33301 43 18.666 47 33.999h107c-8.66699 -48 -31 -84 -67 -108c-28 -18.667 -69.333 -32.334 -124 -41.001c-134 -20.667 -201 -85 -201 -193zM304.998 405.001
c-42.667 0 -74.666 -14.667 -95.999 -44c-19.333 -26 -29 -61 -29 -105c0 -43.333 8.66699 -78.333 26 -105c20.667 -30.667 52 -46 94 -46c41.333 0 72.666 15.667 93.999 47c18 26.667 27 61.667 27 105c0 42.667 -8.33301 76.667 -25 102c-20 30.667 -50.333 46 -91 46z
" />
    <glyph glyph-name="aacute" unicode="&#x431;" horiz-adv-x="601" 
d="M143 405c16.667 34 40.165 61.334 70.498 82.001s63.833 31 100.5 31c78.667 0 140.334 -21.667 185.001 -65s67 -104.666 67 -183.999c0 -86.667 -22.333 -155 -67 -205c-46.667 -52 -113 -78 -199 -78c-88 0 -155 28.667 -201 86c-42.667 52 -64 123.333 -64 214
c0 114.667 15.333 202 46 262c36.667 72 100.334 118.667 191.001 140l109 25c27.333 7.33301 43 18.666 47 33.999h107c-8.66699 -48 -31 -84 -67 -108c-28 -18.667 -69.333 -32.334 -124 -41.001c-134 -20.667 -201 -85 -201 -193zM304.998 405.001
c-42.667 0 -74.666 -14.667 -95.999 -44c-19.333 -26 -29 -61 -29 -105c0 -43.333 8.66699 -78.333 26 -105c20.667 -30.667 52 -46 94 -46c41.333 0 72.666 15.667 93.999 47c18 26.667 27 61.667 27 105c0 42.667 -8.33301 76.667 -25 102c-20 30.667 -50.333 46 -91 46z
" />
    <glyph glyph-name="acircumflex" unicode="&#xe2;" 
d="M60 0v538.001h243c55.333 0 101 -9.33301 137 -28c47.333 -24 71 -61 71 -111c0 -60.667 -33.333 -99.334 -100 -116.001c77.333 -18 116 -63.333 116 -136c0 -98 -65.667 -147 -197 -147h-270zM201 235.001v-138h104c56 0 84 23 84 69s-28.667 69 -86 69h-102z
M201 441.001v-121h92c53.333 0 80 20.333 80 61c0 40 -26.333 60 -79 60h-93z" />
    <glyph glyph-name="acircumflex" unicode="&#x432;" 
d="M60 0v538.001h243c55.333 0 101 -9.33301 137 -28c47.333 -24 71 -61 71 -111c0 -60.667 -33.333 -99.334 -100 -116.001c77.333 -18 116 -63.333 116 -136c0 -98 -65.667 -147 -197 -147h-270zM201 235.001v-138h104c56 0 84 23 84 69s-28.667 69 -86 69h-102z
M201 441.001v-121h92c53.333 0 80 20.333 80 61c0 40 -26.333 60 -79 60h-93z" />
    <glyph glyph-name="atilde" unicode="&#xe3;" horiz-adv-x="442" 
d="M60 538h365v-113h-224v-425h-141v538z" />
    <glyph glyph-name="atilde" unicode="&#x433;" horiz-adv-x="442" 
d="M60 538h365v-113h-224v-425h-141v538z" />
    <glyph glyph-name="adieresis" unicode="&#xe4;" horiz-adv-x="637" 
d="M76 113c38 46.667 57 139.667 57 279v146h415v-425h65v-258h-131v145h-334v-145h-131v258h59zM216 113h191v312h-143v-66c0 -117.333 -16 -199.333 -48 -246z" />
    <glyph glyph-name="adieresis" unicode="&#x434;" horiz-adv-x="637" 
d="M76 113c38 46.667 57 139.667 57 279v146h415v-425h65v-258h-131v145h-334v-145h-131v258h59zM216 113h191v312h-143v-66c0 -117.333 -16 -199.333 -48 -246z" />
    <glyph glyph-name="aring" unicode="&#xe5;" horiz-adv-x="580" 
d="M394 158l145.001 -0.000976562c-16 -54.667 -44.833 -97 -86.5 -127s-91.5 -45 -149.5 -45c-178.667 0 -268 98 -268 294c0 83.333 22.5 149.5 67.5 198.5s108.5 73.5 190.5 73.5c84 0 147.333 -24 190 -72c41.333 -45.333 62 -110.666 62 -195.999v-53h-365
c0 -88 41 -132 123 -132c20.667 0 39.667 5.16699 57 15.5s28.666 24.833 33.999 43.5zM180.001 322.999h219.999c-7.33301 75.333 -43.666 113 -108.999 113s-102.333 -37.667 -111 -113z" />
    <glyph glyph-name="aring" unicode="&#x435;" horiz-adv-x="580" 
d="M394 158l145.001 -0.000976562c-16 -54.667 -44.833 -97 -86.5 -127s-91.5 -45 -149.5 -45c-178.667 0 -268 98 -268 294c0 83.333 22.5 149.5 67.5 198.5s108.5 73.5 190.5 73.5c84 0 147.333 -24 190 -72c41.333 -45.333 62 -110.666 62 -195.999v-53h-365
c0 -88 41 -132 123 -132c20.667 0 39.667 5.16699 57 15.5s28.666 24.833 33.999 43.5zM180.001 322.999h219.999c-7.33301 75.333 -43.666 113 -108.999 113s-102.333 -37.667 -111 -113z" />
    <glyph glyph-name="ae" unicode="&#xe6;" horiz-adv-x="817" 
d="M339 0v175l-41 46l-119 -221h-170l191 324l-187 214h166l160 -198v198h141v-200l159 200h167l-187 -215l192 -323h-170l-120 220l-41 -44v-176h-141z" />
    <glyph glyph-name="ae" unicode="&#x436;" horiz-adv-x="817" 
d="M339 0v175l-41 46l-119 -221h-170l191 324l-187 214h166l160 -198v198h141v-200l159 200h167l-187 -215l192 -323h-170l-120 220l-41 -44v-176h-141z" />
    <glyph glyph-name="ccedilla" unicode="&#xe7;" horiz-adv-x="559" 
d="M233 236l0.000976562 90h53c54 0 81 20.667 81 62c0 38 -30 57 -90 57c-58.667 0 -91.667 -23.667 -99 -71h-136c24 118.667 103.667 178 239 178c53.333 0 100.666 -10.333 141.999 -31c53.333 -25.333 80 -62 80 -110c0 -70 -40 -113.667 -120 -131
c94 -12 141 -57 141 -135c0 -58.667 -27 -101.667 -81 -129c-40.667 -20 -93.667 -30 -159 -30c-168.667 0 -253 62 -253 186h137c0 -52.667 36.333 -79 109 -79c70.667 0 106 22.667 106 68c0 50 -30 75 -90 75h-60z" />
    <glyph glyph-name="ccedilla" unicode="&#x437;" horiz-adv-x="559" 
d="M233 236l0.000976562 90h53c54 0 81 20.667 81 62c0 38 -30 57 -90 57c-58.667 0 -91.667 -23.667 -99 -71h-136c24 118.667 103.667 178 239 178c53.333 0 100.666 -10.333 141.999 -31c53.333 -25.333 80 -62 80 -110c0 -70 -40 -113.667 -120 -131
c94 -12 141 -57 141 -135c0 -58.667 -27 -101.667 -81 -129c-40.667 -20 -93.667 -30 -159 -30c-168.667 0 -253 62 -253 186h137c0 -52.667 36.333 -79 109 -79c70.667 0 106 22.667 106 68c0 50 -30 75 -90 75h-60z" />
    <glyph glyph-name="egrave" unicode="&#xe8;" horiz-adv-x="616" 
d="M201 538v-341l204 341h151v-538h-141v342l-204 -342h-151v538h141z" />
    <glyph glyph-name="egrave" unicode="&#x438;" horiz-adv-x="616" 
d="M201 538v-341l204 341h151v-538h-141v342l-204 -342h-151v538h141z" />
    <glyph glyph-name="eacute" unicode="&#xe9;" horiz-adv-x="616" 
d="M201 538v-341l204 341h151v-538h-141v342l-204 -342h-151v538h141zM433 758h66.001c-8.66699 -98.667 -68.667 -148 -180 -148c-58.667 0 -102.334 19.333 -131.001 58c-20 27.333 -30 57.333 -30 90h67c9.33301 -47.333 42.666 -71 99.999 -71
c30.667 0 53 3.33301 67 10c22.667 10.667 36.334 31 41.001 61z" />
    <glyph glyph-name="eacute" unicode="&#x439;" horiz-adv-x="616" 
d="M201 538v-341l204 341h151v-538h-141v342l-204 -342h-151v538h141zM433 758h66.001c-8.66699 -98.667 -68.667 -148 -180 -148c-58.667 0 -102.334 19.333 -131.001 58c-20 27.333 -30 57.333 -30 90h67c9.33301 -47.333 42.666 -71 99.999 -71
c30.667 0 53 3.33301 67 10c22.667 10.667 36.334 31 41.001 61z" />
    <glyph glyph-name="ecircumflex" unicode="&#xea;" 
d="M201 538v-204l178 204h173l-189 -208l194 -330h-169l-128 231l-59 -61v-170h-141v538h141z" />
    <glyph glyph-name="ecircumflex" unicode="&#x43a;" 
d="M201 538v-204l178 204h173l-189 -208l194 -330h-169l-128 231l-59 -61v-170h-141v538h141z" />
    <glyph glyph-name="edieresis" unicode="&#xeb;" horiz-adv-x="614" 
d="M121 538h433v-538h-141v425h-151v-166c0 -78 -8.33301 -137.333 -25 -178c-25.333 -62 -70.666 -93 -135.999 -93c-34.667 0 -63.334 4 -86.001 12v105c4 -2.66699 18 -4 42 -4c32 0 52 25 60 75c2.66699 16 4 52.667 4 110v252z" />
    <glyph glyph-name="edieresis" unicode="&#x43b;" horiz-adv-x="614" 
d="M121 538h433v-538h-141v425h-151v-166c0 -78 -8.33301 -137.333 -25 -178c-25.333 -62 -70.666 -93 -135.999 -93c-34.667 0 -63.334 4 -86.001 12v105c4 -2.66699 18 -4 42 -4c32 0 52 25 60 75c2.66699 16 4 52.667 4 110v252z" />
    <glyph glyph-name="igrave" unicode="&#xec;" horiz-adv-x="748" 
d="M255 538l117 -366h4l116 366h196v-538h-135v330c0 24.667 1.33301 45.667 4 63h-4l-127 -393h-104l-127 393h-4c2.66699 -16 4 -37 4 -63v-330h-135v538h195z" />
    <glyph glyph-name="igrave" unicode="&#x43c;" horiz-adv-x="748" 
d="M255 538l117 -366h4l116 366h196v-538h-135v330c0 24.667 1.33301 45.667 4 63h-4l-127 -393h-104l-127 393h-4c2.66699 -16 4 -37 4 -63v-330h-135v538h195z" />
    <glyph glyph-name="iacute" unicode="&#xed;" horiz-adv-x="603" 
d="M201 538v-201h201v201h141v-538h-141v224h-201v-224h-141v538h141z" />
    <glyph glyph-name="iacute" unicode="&#x43d;" horiz-adv-x="603" 
d="M201 538v-201h201v201h141v-538h-141v224h-201v-224h-141v538h141z" />
    <glyph glyph-name="icircumflex" unicode="&#xee;" horiz-adv-x="619" 
d="M310 552c84.667 0 151.5 -25.668 200.5 -77.001s73.5 -119.666 73.5 -204.999s-24.5 -154 -73.5 -206s-115.833 -78 -200.5 -78s-151.667 25.833 -201 77.5s-74 120.167 -74 205.5s24.667 153.833 74 205.5s116.333 77.5 201 77.5zM310 432.999
c-86.667 0 -130 -54.333 -130 -163c0 -110 43.333 -165 130 -165c86 0 129 54.667 129 164s-43 164 -129 164z" />
    <glyph glyph-name="icircumflex" unicode="&#x43e;" horiz-adv-x="619" 
d="M310 552c84.667 0 151.5 -25.668 200.5 -77.001s73.5 -119.666 73.5 -204.999s-24.5 -154 -73.5 -206s-115.833 -78 -200.5 -78s-151.667 25.833 -201 77.5s-74 120.167 -74 205.5s24.667 153.833 74 205.5s116.333 77.5 201 77.5zM310 432.999
c-86.667 0 -130 -54.333 -130 -163c0 -110 43.333 -165 130 -165c86 0 129 54.667 129 164s-43 164 -129 164z" />
    <glyph glyph-name="idieresis" unicode="&#xef;" horiz-adv-x="603" 
d="M60 538h483v-538h-141v425h-201v-425h-141v538z" />
    <glyph glyph-name="idieresis" unicode="&#x43f;" horiz-adv-x="603" 
d="M60 538h483v-538h-141v425h-201v-425h-141v538z" />
    <glyph glyph-name="eth" unicode="&#xf0;" horiz-adv-x="618" 
d="M317 430c-43.333 0 -75.333 -17.667 -96 -53c-16.667 -28.667 -25 -66 -25 -112c0 -42.667 8.66699 -79 26 -109c20.667 -36 51 -54 91 -54c42.667 0 74.667 16 96 48c19.333 27.333 29 63 29 107c0 115.333 -40.333 173 -121 173zM196 538v-78
c19.333 29.333 37.666 50 54.999 62c28 20 63.667 30 107 30c74 0 131 -29 171 -87c36 -50.667 54 -114.667 54 -192c0 -80 -17.667 -145.667 -53 -197c-40 -60 -98.333 -90 -175 -90c-67.333 0 -117.666 27.667 -150.999 83l-3 1v-286h-141v754h136z" />
    <glyph glyph-name="eth" unicode="&#x440;" horiz-adv-x="618" 
d="M317 430c-43.333 0 -75.333 -17.667 -96 -53c-16.667 -28.667 -25 -66 -25 -112c0 -42.667 8.66699 -79 26 -109c20.667 -36 51 -54 91 -54c42.667 0 74.667 16 96 48c19.333 27.333 29 63 29 107c0 115.333 -40.333 173 -121 173zM196 538v-78
c19.333 29.333 37.666 50 54.999 62c28 20 63.667 30 107 30c74 0 131 -29 171 -87c36 -50.667 54 -114.667 54 -192c0 -80 -17.667 -145.667 -53 -197c-40 -60 -98.333 -90 -175 -90c-67.333 0 -117.666 27.667 -150.999 83l-3 1v-286h-141v754h136z" />
    <glyph glyph-name="ntilde" unicode="&#xf1;" horiz-adv-x="564" 
d="M386 196l141.998 -0.000976562c-6 -66 -31.5 -117.5 -76.5 -154.5s-101.167 -55.5 -168.5 -55.5c-82 0 -144.333 24.667 -187 74c-40.667 46.667 -61 111.334 -61 194.001c0 90.667 19.667 161.667 59 213c44 56.667 110 85 198 85c57.333 0 107.333 -13.333 150 -40
c58 -36.667 87 -92 87 -166h-143c-10 58 -41.333 87 -94 87c-39.333 0 -68.666 -17 -87.999 -51c-16 -28 -24 -63 -24 -105c0 -48 4.66699 -84.333 14 -109c16.667 -44 48.334 -66 95.001 -66c25.333 0 47.833 9.33301 67.5 28s29.5 40.667 29.5 66z" />
    <glyph glyph-name="ntilde" unicode="&#x441;" horiz-adv-x="564" 
d="M386 196l141.998 -0.000976562c-6 -66 -31.5 -117.5 -76.5 -154.5s-101.167 -55.5 -168.5 -55.5c-82 0 -144.333 24.667 -187 74c-40.667 46.667 -61 111.334 -61 194.001c0 90.667 19.667 161.667 59 213c44 56.667 110 85 198 85c57.333 0 107.333 -13.333 150 -40
c58 -36.667 87 -92 87 -166h-143c-10 58 -41.333 87 -94 87c-39.333 0 -68.666 -17 -87.999 -51c-16 -28 -24 -63 -24 -105c0 -48 4.66699 -84.333 14 -109c16.667 -44 48.334 -66 95.001 -66c25.333 0 47.833 9.33301 67.5 28s29.5 40.667 29.5 66z" />
    <glyph glyph-name="ograve" unicode="&#xf2;" horiz-adv-x="495" 
d="M318 0h-141v425h-160v113h461v-113h-160v-425z" />
    <glyph glyph-name="ograve" unicode="&#x442;" horiz-adv-x="495" 
d="M318 0h-141v425h-160v113h461v-113h-160v-425z" />
    <glyph glyph-name="oacute" unicode="&#xf3;" 
d="M395 538l149.999 -0.000976562l-185 -528c-32.667 -92.667 -59.667 -152 -81 -178c-28 -34 -70.333 -50 -127 -48l-64 2v113l27 -2c26.667 -2 47.334 2.33301 62.001 13s25 33.334 31 68.001l-198 560h158l115 -396z" />
    <glyph glyph-name="oacute" unicode="&#x443;" 
d="M395 538l149.999 -0.000976562l-185 -528c-32.667 -92.667 -59.667 -152 -81 -178c-28 -34 -70.333 -50 -127 -48l-64 2v113l27 -2c26.667 -2 47.334 2.33301 62.001 13s25 33.334 31 68.001l-198 560h158l115 -396z" />
    <glyph glyph-name="ocircumflex" unicode="&#xf4;" horiz-adv-x="901" 
d="M380 726h141.003v-266c17.333 28 34.666 48.667 51.999 62c26 20 57.333 30 94 30c68.667 0 120.667 -30.333 156 -91c28.667 -50 43 -112 43 -186c0 -78.667 -13.667 -143.334 -41 -194.001c-34.667 -63.333 -88.334 -95 -161.001 -95
c-60.667 0 -107.334 27.667 -140.001 83l-3 -285h-141v285c-15.333 -23.333 -30.333 -40.666 -45 -51.999c-26.667 -20.667 -59 -31 -97 -31c-71.333 0 -124.666 32 -159.999 96c-28.667 51.333 -43 115.666 -43 192.999c0 74 14.667 136 44 186
c35.333 60.667 87.333 91 156 91c33.333 0 62 -8.33301 86 -25c19.333 -13.333 38.666 -35.666 57.999 -66.999zM516.003 259c0 -103.333 37.333 -155 112 -155c62 0 93 53.333 93 160c0 112.667 -31.333 169 -94 169c-74 0 -111 -58 -111 -174zM386.003 259
c0 116 -35.667 174 -107 174c-36.667 0 -63.667 -20.333 -81 -61c-12 -29.333 -18 -65.333 -18 -108c0 -40.667 5.66699 -75 17 -103c16 -38 41.667 -57 77 -57c74.667 0 112 51.667 112 155z" />
    <glyph glyph-name="ocircumflex" unicode="&#x444;" horiz-adv-x="901" 
d="M380 726h141.003v-266c17.333 28 34.666 48.667 51.999 62c26 20 57.333 30 94 30c68.667 0 120.667 -30.333 156 -91c28.667 -50 43 -112 43 -186c0 -78.667 -13.667 -143.334 -41 -194.001c-34.667 -63.333 -88.334 -95 -161.001 -95
c-60.667 0 -107.334 27.667 -140.001 83l-3 -285h-141v285c-15.333 -23.333 -30.333 -40.666 -45 -51.999c-26.667 -20.667 -59 -31 -97 -31c-71.333 0 -124.666 32 -159.999 96c-28.667 51.333 -43 115.666 -43 192.999c0 74 14.667 136 44 186
c35.333 60.667 87.333 91 156 91c33.333 0 62 -8.33301 86 -25c19.333 -13.333 38.666 -35.666 57.999 -66.999zM516.003 259c0 -103.333 37.333 -155 112 -155c62 0 93 53.333 93 160c0 112.667 -31.333 169 -94 169c-74 0 -111 -58 -111 -174zM386.003 259
c0 116 -35.667 174 -107 174c-36.667 0 -63.667 -20.333 -81 -61c-12 -29.333 -18 -65.333 -18 -108c0 -40.667 5.66699 -75 17 -103c16 -38 41.667 -57 77 -57c74.667 0 112 51.667 112 155z" />
    <glyph glyph-name="otilde" unicode="&#xf5;" 
d="M364 274l183 -274h-175l-93 162l-93 -162h-171l183 274l-176 264h172l91 -157l89 157h167z" />
    <glyph glyph-name="otilde" unicode="&#x445;" 
d="M364 274l183 -274h-175l-93 162l-93 -162h-171l183 274l-176 264h172l91 -157l89 157h167z" />
    <glyph glyph-name="odieresis" unicode="&#xf6;" horiz-adv-x="624" 
d="M201 538v-425h202v425h141v-425h64v-258h-131v145h-417v538h141z" />
    <glyph glyph-name="odieresis" unicode="&#x446;" horiz-adv-x="624" 
d="M201 538v-425h202v425h141v-425h64v-258h-131v145h-417v538h141z" />
    <glyph glyph-name="divide" unicode="&#xf7;" horiz-adv-x="595" 
d="M60 538h141v-157c0 -48.667 30.667 -73 92 -73c48 0 81.667 2.66699 101 8v222h141v-538h-141v206c-51.333 -11.333 -102 -17 -152 -17c-121.333 0 -182 62.667 -182 188v161z" />
    <glyph glyph-name="divide" unicode="&#x447;" horiz-adv-x="595" 
d="M60 538h141v-157c0 -48.667 30.667 -73 92 -73c48 0 81.667 2.66699 101 8v222h141v-538h-141v206c-51.333 -11.333 -102 -17 -152 -17c-121.333 0 -182 62.667 -182 188v161z" />
    <glyph glyph-name="oslash" unicode="&#xf8;" horiz-adv-x="889" 
d="M201 538v-425h173v425h141v-425h173v425h141v-538h-769v538h141z" />
    <glyph glyph-name="oslash" unicode="&#x448;" horiz-adv-x="889" 
d="M201 538v-425h173v425h141v-425h173v425h141v-538h-769v538h141z" />
    <glyph glyph-name="ugrave" unicode="&#xf9;" horiz-adv-x="908" 
d="M201 538v-425h173v425h141v-425h173v425h141v-425h65v-258h-131v145h-703v538h141z" />
    <glyph glyph-name="ugrave" unicode="&#x449;" horiz-adv-x="908" 
d="M201 538v-425h173v425h141v-425h173v425h141v-425h65v-258h-131v145h-703v538h141z" />
    <glyph glyph-name="uacute" unicode="&#xfa;" horiz-adv-x="595" 
d="M0 538l245 -0.000976562v-201h100c62 0 112.333 -14 151 -42c44 -31.333 66 -76.666 66 -135.999c0 -55.333 -23.333 -97 -70 -125c-38 -22.667 -86.667 -34 -146 -34h-242v425h-104v113zM245 239.999v-143h96c53.333 0 80 21.667 80 65c0 52 -26.667 78 -80 78h-96z" />
    <glyph glyph-name="uacute" unicode="&#x44a;" horiz-adv-x="595" 
d="M0 538l245 -0.000976562v-201h100c62 0 112.333 -14 151 -42c44 -31.333 66 -76.666 66 -135.999c0 -55.333 -23.333 -97 -70 -125c-38 -22.667 -86.667 -34 -146 -34h-242v425h-104v113zM245 239.999v-143h96c53.333 0 80 21.667 80 65c0 52 -26.667 78 -80 78h-96z" />
    <glyph glyph-name="ucircumflex" unicode="&#xfb;" horiz-adv-x="814" 
d="M201 538v-201.001h100c62 0 112.333 -14 151 -42c44 -31.333 66 -76.666 66 -135.999c0 -55.333 -23.333 -97 -70 -125c-38 -22.667 -86.667 -34 -146 -34h-242v538h141zM201 239.999v-143h96c53.333 0 80 21.667 80 65c0 52 -26.667 78 -80 78h-96zM754 537.999v-538
h-141v538h141z" />
    <glyph glyph-name="ucircumflex" unicode="&#x44b;" horiz-adv-x="814" 
d="M201 538v-201.001h100c62 0 112.333 -14 151 -42c44 -31.333 66 -76.666 66 -135.999c0 -55.333 -23.333 -97 -70 -125c-38 -22.667 -86.667 -34 -146 -34h-242v538h141zM201 239.999v-143h96c53.333 0 80 21.667 80 65c0 52 -26.667 78 -80 78h-96zM754 537.999v-538
h-141v538h141z" />
    <glyph glyph-name="udieresis" unicode="&#xfc;" horiz-adv-x="563" 
d="M211 538v-201.001h100c62 0 112.333 -14 151 -42c44 -31.333 66 -76.666 66 -135.999c0 -55.333 -23.333 -97 -70 -125c-38 -22.667 -86.667 -34 -146 -34h-242v538h141zM211 239.999v-143h96c53.333 0 80 21.667 80 65c0 52 -26.667 78 -80 78h-96z" />
    <glyph glyph-name="udieresis" unicode="&#x44c;" horiz-adv-x="563" 
d="M211 538v-201.001h100c62 0 112.333 -14 151 -42c44 -31.333 66 -76.666 66 -135.999c0 -55.333 -23.333 -97 -70 -125c-38 -22.667 -86.667 -34 -146 -34h-242v538h141zM211 239.999v-143h96c53.333 0 80 21.667 80 65c0 52 -26.667 78 -80 78h-96z" />
    <glyph glyph-name="yacute" unicode="&#xfd;" 
d="M35 196l140.998 -0.00195312c0 -18 7.66699 -36.667 23 -56c20 -25.333 45.667 -38 77 -38c36.667 0 64.334 14.333 83.001 43c15.333 24.667 23 56.334 23 95.001h-142v92h142c-7.33301 36 -17.666 61.333 -30.999 76c-16 18.667 -41 28 -75 28
c-51.333 0 -83.333 -25 -96 -75h-140c12 59.333 39.333 106 82 140s94 51 154 51c86 0 150.667 -29 194 -87c38 -52 57 -122.333 57 -211c0 -81.333 -20.667 -145.666 -62 -192.999c-43.333 -50 -105.333 -75 -186 -75c-85.333 0 -150 28 -194 84
c-29.333 37.333 -46 79.333 -50 126z" />
    <glyph glyph-name="yacute" unicode="&#x44d;" 
d="M35 196l140.998 -0.00195312c0 -18 7.66699 -36.667 23 -56c20 -25.333 45.667 -38 77 -38c36.667 0 64.334 14.333 83.001 43c15.333 24.667 23 56.334 23 95.001h-142v92h142c-7.33301 36 -17.666 61.333 -30.999 76c-16 18.667 -41 28 -75 28
c-51.333 0 -83.333 -25 -96 -75h-140c12 59.333 39.333 106 82 140s94 51 154 51c86 0 150.667 -29 194 -87c38 -52 57 -122.333 57 -211c0 -81.333 -20.667 -145.666 -62 -192.999c-43.333 -50 -105.333 -75 -186 -75c-85.333 0 -150 28 -194 84
c-29.333 37.333 -46 79.333 -50 126z" />
    <glyph glyph-name="thorn" unicode="&#xfe;" horiz-adv-x="836" 
d="M201 538l-0.000976562 -200.999h98c10 64 37.833 115.833 83.5 155.5s100.834 59.5 165.501 59.5c80 0 143 -27.667 189 -83c42.667 -51.333 64 -118 64 -200s-21.333 -148.667 -64 -200c-46 -55.333 -109 -83 -189 -83c-72 0 -130 22 -174 66
c-41.333 41.333 -66.333 98.666 -75 171.999h-98v-224h-141v538h141zM547.999 433.001c-39.333 0 -68.666 -18.665 -87.999 -55.998c-14.667 -28.667 -22 -64.667 -22 -108s7.33301 -79.333 22 -108c19.333 -37.333 48.666 -56 87.999 -56s69 18.333 89 55
c15.333 29.333 23 65.666 23 108.999s-7.66699 79.666 -23 108.999c-20 36.667 -49.667 55 -89 55z" />
    <glyph glyph-name="thorn" unicode="&#x44e;" horiz-adv-x="836" 
d="M201 538l-0.000976562 -200.999h98c10 64 37.833 115.833 83.5 155.5s100.834 59.5 165.501 59.5c80 0 143 -27.667 189 -83c42.667 -51.333 64 -118 64 -200s-21.333 -148.667 -64 -200c-46 -55.333 -109 -83 -189 -83c-72 0 -130 22 -174 66
c-41.333 41.333 -66.333 98.666 -75 171.999h-98v-224h-141v538h141zM547.999 433.001c-39.333 0 -68.666 -18.665 -87.999 -55.998c-14.667 -28.667 -22 -64.667 -22 -108s7.33301 -79.333 22 -108c19.333 -37.333 48.666 -56 87.999 -56s69 18.333 89 55
c15.333 29.333 23 65.666 23 108.999s-7.66699 79.666 -23 108.999c-20 36.667 -49.667 55 -89 55z" />
    <glyph glyph-name="ydieresis" unicode="&#xff;" horiz-adv-x="561" 
d="M191 0h-164.001l131 225c-37.333 8.66699 -67.166 26.5 -89.499 53.5s-33.5 59.5 -33.5 97.5c0 108 71 162 213 162h253v-538h-141v212h-61zM359.999 305v136h-104c-22.667 0 -41.667 -5.66699 -57 -17c-17.333 -12 -26 -29 -26 -51c0 -45.333 27.667 -68 83 -68h104z
" />
    <glyph glyph-name="ydieresis" unicode="&#x44f;" horiz-adv-x="561" 
d="M191 0h-164.001l131 225c-37.333 8.66699 -67.166 26.5 -89.499 53.5s-33.5 59.5 -33.5 97.5c0 108 71 162 213 162h253v-538h-141v212h-61zM359.999 305v136h-104c-22.667 0 -41.667 -5.66699 -57 -17c-17.333 -12 -26 -29 -26 -51c0 -45.333 27.667 -68 83 -68h104z
" />
    <glyph glyph-name="OE" unicode="&#x152;" horiz-adv-x="1137" 
d="M221 726v-275.001h283v275h151v-275h189c72 0 130.667 -20 176 -60c48 -41.333 72 -97.666 72 -168.999c0 -72 -24 -127.667 -72 -167c-44.667 -36.667 -104 -55 -178 -55h-338v326h-283v-326h-151v726h151zM655 325.999v-200.999h171c33.333 0 60.833 9.16699 82.5 27.5
s32.5 44.166 32.5 77.499c0 64 -38.333 96 -115 96h-171z" />
    <glyph glyph-name="OE" unicode="&#x40a;" horiz-adv-x="1137" 
d="M221 726v-275.001h283v275h151v-275h189c72 0 130.667 -20 176 -60c48 -41.333 72 -97.666 72 -168.999c0 -72 -24 -127.667 -72 -167c-44.667 -36.667 -104 -55 -178 -55h-338v326h-283v-326h-151v726h151zM655 325.999v-200.999h171c33.333 0 60.833 9.16699 82.5 27.5
s32.5 44.166 32.5 77.499c0 64 -38.333 96 -115 96h-171z" />
    <glyph glyph-name="oe" unicode="&#x153;" horiz-adv-x="895" 
d="M201 538v-201.001h201v201h141v-201h100c62 0 112.333 -14 151 -42c44 -31.333 66 -76.666 66 -135.999c0 -55.333 -23.333 -97 -70 -125c-38 -22.667 -86.667 -34 -146 -34h-242v240h-201v-240h-141v538h141zM543 239.999v-143h96c53.333 0 80 21.667 80 65
c0 52 -26.667 78 -80 78h-96z" />
    <glyph glyph-name="oe" unicode="&#x45a;" horiz-adv-x="895" 
d="M201 538v-201.001h201v201h141v-201h100c62 0 112.333 -14 151 -42c44 -31.333 66 -76.666 66 -135.999c0 -55.333 -23.333 -97 -70 -125c-38 -22.667 -86.667 -34 -146 -34h-242v240h-201v-240h-141v538h141zM543 239.999v-143h96c53.333 0 80 21.667 80 65
c0 52 -26.667 78 -80 78h-96z" />
    <glyph glyph-name="Scaron" unicode="&#x160;" horiz-adv-x="1133" 
d="M144 726l507.001 -0.000976562v-275h189c72 0 130.667 -20 176 -60c48 -41.333 72 -97.666 72 -168.999c0 -72 -24 -127.667 -72 -167c-44.667 -36.667 -104 -55 -178 -55h-338v601h-205v-310c0 -88.667 -10 -156.667 -30 -204c-30 -70.667 -83 -106 -159 -106
c-37.333 0 -68 3.66699 -92 11v116c12 -4 27 -6 45 -6c41.333 0 67.666 26 78.999 78c4 20 6 62.333 6 127v419zM651.001 325.999v-200.999h171c33.333 0 60.833 9.16699 82.5 27.5s32.5 44.166 32.5 77.499c0 64 -38.333 96 -115 96h-171z" />
    <glyph glyph-name="Scaron" unicode="&#x409;" horiz-adv-x="1133" 
d="M144 726l507.001 -0.000976562v-275h189c72 0 130.667 -20 176 -60c48 -41.333 72 -97.666 72 -168.999c0 -72 -24 -127.667 -72 -167c-44.667 -36.667 -104 -55 -178 -55h-338v601h-205v-310c0 -88.667 -10 -156.667 -30 -204c-30 -70.667 -83 -106 -159 -106
c-37.333 0 -68 3.66699 -92 11v116c12 -4 27 -6 45 -6c41.333 0 67.666 26 78.999 78c4 20 6 62.333 6 127v419zM651.001 325.999v-200.999h171c33.333 0 60.833 9.16699 82.5 27.5s32.5 44.166 32.5 77.499c0 64 -38.333 96 -115 96h-171z" />
    <glyph glyph-name="scaron" unicode="&#x161;" horiz-adv-x="906" 
d="M121 538l433 -0.000976562v-201h100c62 0 112.333 -14 151 -42c44 -31.333 66 -76.666 66 -135.999c0 -55.333 -23.333 -97 -70 -125c-38 -22.667 -86.667 -34 -146 -34h-242v425h-151v-166c0 -78 -8.33301 -137.333 -25 -178c-25.333 -62 -70.666 -93 -135.999 -93
c-34.667 0 -63.334 4 -86.001 12v105c4 -2.66699 18 -4 42 -4c32 0 52 25 60 75c2.66699 16 4 52.667 4 110v252zM554 239.999v-143h96c53.333 0 80 21.667 80 65c0 52 -26.667 78 -80 78h-96z" />
    <glyph glyph-name="scaron" unicode="&#x459;" horiz-adv-x="906" 
d="M121 538l433 -0.000976562v-201h100c62 0 112.333 -14 151 -42c44 -31.333 66 -76.666 66 -135.999c0 -55.333 -23.333 -97 -70 -125c-38 -22.667 -86.667 -34 -146 -34h-242v425h-151v-166c0 -78 -8.33301 -137.333 -25 -178c-25.333 -62 -70.666 -93 -135.999 -93
c-34.667 0 -63.334 4 -86.001 12v105c4 -2.66699 18 -4 42 -4c32 0 52 25 60 75c2.66699 16 4 52.667 4 110v252zM554 239.999v-143h96c53.333 0 80 21.667 80 65c0 52 -26.667 78 -80 78h-96z" />
    <glyph glyph-name="Ydieresis" unicode="&#x178;" horiz-adv-x="604" 
d="M201 538v-425h202v425h141v-538h-177v-145h-130v145h-177v538h141z" />
    <glyph glyph-name="Ydieresis" unicode="&#x45f;" horiz-adv-x="604" 
d="M201 538v-425h202v425h141v-538h-177v-145h-130v145h-177v538h141z" />
    <glyph glyph-name="florin" unicode="&#x192;" horiz-adv-x="442" 
d="M60 538h365v-113h-224v-425h-141v538zM365 733l-114 -113h-82l74 113h122z" />
    <glyph glyph-name="florin" unicode="&#x453;" horiz-adv-x="442" 
d="M60 538h365v-113h-224v-425h-141v538zM365 733l-114 -113h-82l74 113h122z" />
    <glyph glyph-name="endash" unicode="&#x2013;" 
d="M562 312v-113h-562v113h562z" />
    <glyph glyph-name="emdash" unicode="&#x2014;" horiz-adv-x="1010" 
d="M1010 312v-113h-1010v113h1010z" />
    <glyph glyph-name="quoteleft" unicode="&#x2018;" horiz-adv-x="280" 
d="M210 587v-128h-141v103c0 96 46.333 153.333 139 172v-51c-50 -15.333 -75 -47.333 -75 -96h77z" />
    <glyph glyph-name="quoteright" unicode="&#x2019;" horiz-adv-x="280" 
d="M69 597v128h141v-102c0 -96 -46 -153.667 -138 -173v51c50 15.333 75 47.333 75 96h-78z" />
    <glyph glyph-name="quotesinglbase" unicode="&#x201a;" horiz-adv-x="280" 
d="M64 0v147h151v-127c0 -54 -12 -95.833 -36 -125.5s-62 -51.167 -114 -64.5l-1 54c30.667 10 52.5 23.667 65.5 41s19.5 42.333 19.5 75h-85z" />
    <glyph glyph-name="quotedblleft" unicode="&#x201c;" horiz-adv-x="504" 
d="M205 587v-128h-141v103c0 96 46.333 153.333 139 172v-51c-50 -15.333 -75 -47.333 -75 -96h77zM439 587v-128h-141v103c0 96 46.333 153.333 139 172v-51c-50 -15.333 -75 -47.333 -75 -96h77z" />
    <glyph glyph-name="quotedblright" unicode="&#x201d;" horiz-adv-x="504" 
d="M64 597v128h141v-102c0 -96 -46 -153.667 -138 -173v51c50 15.333 75 47.333 75 96h-78zM298 597v128h141v-102c0 -96 -46 -153.667 -138 -173v51c50 15.333 75 47.333 75 96h-78z" />
    <glyph glyph-name="quotedblbase" unicode="&#x201e;" horiz-adv-x="504" 
d="M54 0v147h151v-127c0 -54 -12 -95.833 -36 -125.5s-62 -51.167 -114 -64.5l-1 54c30.667 10 52.5 23.667 65.5 41s19.5 42.333 19.5 75h-85zM288 0v147h151v-127c0 -54 -12 -95.833 -36 -125.5s-62 -51.167 -114 -64.5l-1 54c30.667 10 52.5 23.667 65.5 41
s19.5 42.333 19.5 75h-85z" />
    <glyph glyph-name="dagger" unicode="&#x2020;" 
d="M525 504v-113h-177v-563h-135v563h-176v113h176v221h135v-221h177z" />
    <glyph glyph-name="daggerdbl" unicode="&#x2021;" 
d="M380 386l-0.00195312 -61h-120c3.33301 -20 5 -38 5 -54c0 -64 -34.333 -119.333 -103 -166l2 -3c43.333 18 81.333 27 114 27c22 0 63.667 -8.66699 125 -26c29.333 0 63.333 12.333 102 37l42 -110c-53.333 -30.667 -104.666 -46 -153.999 -46
c-22.667 0 -55.667 6.83301 -99 20.5s-75.666 20.5 -96.999 20.5s-58 -12 -110 -36l-55 98c16 5.33301 37 21.666 63 48.999c33.333 34.667 50 67.667 50 99c0 30 -8 60 -24 90h-93v61h59c-27.333 59.333 -41 107 -41 143c0 46 17.333 87.667 52 125
c44.667 48 107.667 72 189 72c74.667 0 133.834 -20.167 177.501 -60.5s65.5 -98.166 65.5 -173.499h-132c-6 41.333 -14.667 70 -26 86c-16.667 23.333 -45.334 35 -86.001 35c-28 0 -51.5 -8.5 -70.5 -25.5s-28.5 -39.5 -28.5 -67.5c0 -18 16 -62.667 48 -134h145z" />
    <glyph glyph-name="bullet" unicode="&#x2022;" horiz-adv-x="354" 
d="M10 364c0 46.667 16.3311 85.834 48.998 117.501s72.334 47.5 119.001 47.5s85.834 -15.833 117.501 -47.5s47.5 -70.834 47.5 -117.501c0 -47.333 -16 -87.166 -48 -119.499s-71.333 -48.5 -118 -48.5c-47.333 0 -87 16.167 -119 48.5s-48 72.166 -48 119.499z" />
    <glyph glyph-name="ellipsis" unicode="&#x2026;" horiz-adv-x="1010" 
d="M244 147v-147h-151v147h151zM580 147v-147h-151v147h151zM916 147v-147h-151v147h151z" />
    <glyph glyph-name="perthousand" unicode="&#x2030;" horiz-adv-x="1311" 
d="M502 171c0 51.333 17.833 94.833 53.5 130.5s79.167 53.5 130.5 53.5c50.667 0 93.834 -18 129.501 -54s53.5 -79.333 53.5 -130s-17.833 -94 -53.5 -130s-78.834 -54 -129.501 -54c-51.333 0 -94.833 17.833 -130.5 53.5s-53.5 79.167 -53.5 130.5zM606 171
c0 -22.667 7.66699 -41.667 23 -57s34.333 -23 57 -23s41.5 7.66699 56.5 23s22.5 34.333 22.5 57c0 22 -7.66699 40.833 -23 56.5s-34 23.5 -56 23.5s-40.833 -7.83301 -56.5 -23.5s-23.5 -34.5 -23.5 -56.5zM28 533c0 51.333 17.833 94.833 53.5 130.5
s79.167 53.5 130.5 53.5c50.667 0 93.834 -18 129.501 -54s53.5 -79.333 53.5 -130s-17.833 -94 -53.5 -130s-78.834 -54 -129.501 -54c-51.333 0 -94.833 17.833 -130.5 53.5s-53.5 79.167 -53.5 130.5zM132 533c0 -22.667 7.66699 -41.667 23 -57s34.333 -23 57 -23
s41.5 7.66699 56.5 23s22.5 34.333 22.5 57c0 22 -7.66699 40.833 -23 56.5s-34 23.5 -56 23.5s-40.833 -7.83301 -56.5 -23.5s-23.5 -34.5 -23.5 -56.5zM684 717l-402 -737h-74l402 737h74zM920 171c0 51.333 17.833 94.833 53.5 130.5s79.167 53.5 130.5 53.5
c50.667 0 93.834 -18 129.501 -54s53.5 -79.333 53.5 -130s-17.833 -94 -53.5 -130s-78.834 -54 -129.501 -54c-51.333 0 -94.833 17.833 -130.5 53.5s-53.5 79.167 -53.5 130.5zM1024 171c0 -22.667 7.66699 -41.667 23 -57s34.333 -23 57 -23s41.5 7.66699 56.5 23
s22.5 34.333 22.5 57c0 22 -7.66699 40.833 -23 56.5s-34 23.5 -56 23.5s-40.833 -7.83301 -56.5 -23.5s-23.5 -34.5 -23.5 -56.5z" />
    <glyph glyph-name="guilsinglleft" unicode="&#x2039;" horiz-adv-x="337" 
d="M253 489v-117l-101 -89l101 -89v-117l-169 145v122z" />
    <glyph glyph-name="guilsinglright" unicode="&#x203a;" horiz-adv-x="337" 
d="M185 283l-101 89v117l169 -145v-122l-169 -145v117z" />
    <glyph glyph-name="trademark" unicode="&#x2122;" horiz-adv-x="1010" 
d="M622 725l95 -252l94 252h154v-416h-107v284h-5l-96 -284h-81l-99 284l-2 -284h-107v416h154zM389 725v-86h-116v-330h-113v330h-116v86h345z" />
    <glyph glyph-name=".null" horiz-adv-x="0" 
 />
    <glyph glyph-name="nonmarkingreturn" horiz-adv-x="281" 
 />
    <glyph glyph-name="glyph215" horiz-adv-x="281" 
 />
    <glyph glyph-name="glyph216" horiz-adv-x="281" 
 />
    </font>
</defs>
</svg>
